<svg width="85" height="85" viewBox="0 0 85 85" fill="none" xmlns="http://www.w3.org/2000/svg">
<mask id="mask0_42_1288" style="mask-type:alpha" maskUnits="userSpaceOnUse" x="0" y="0" width="85" height="85">
<rect width="85" height="85" fill="#D9D9D9"/>
</mask>
<g mask="url(#mask0_42_1288)">
<path d="M42.5142 66.2291C35.8936 66.2291 30.2813 63.9317 25.6771 59.337C21.0729 54.7423 18.7708 49.1346 18.7708 42.5141C18.7708 35.8935 21.0682 30.2812 25.6629 25.677C30.2576 21.0728 35.8653 18.7708 42.4858 18.7708C49.1064 18.7708 54.7188 21.0681 59.3229 25.6628C63.9271 30.2576 66.2292 35.8652 66.2292 42.4858C66.2292 49.1063 63.9318 54.7187 59.3371 59.3228C54.7424 63.927 49.1347 66.2291 42.5142 66.2291ZM42.5 63.7499C48.4028 63.7499 53.4201 61.6839 57.5521 57.552C61.684 53.4201 63.75 48.4027 63.75 42.4999C63.75 41.4657 63.6762 40.4469 63.5287 39.4435C63.3811 38.44 63.1597 37.4519 62.8646 36.4791C61.9201 36.7152 60.9683 36.8923 60.0091 37.0103C59.0499 37.1284 58.0907 37.1874 57.1315 37.1874C53.1029 37.1874 49.303 36.3168 45.7318 34.5754C42.1606 32.8341 39.1059 30.4287 36.5677 27.3593C35.1511 30.7829 33.1293 33.7786 30.5026 36.3463C27.8759 38.914 24.7917 40.8176 21.25 42.0572C21.25 47.96 23.316 53.0511 27.4479 57.3306C31.5799 61.6102 36.5972 63.7499 42.5 63.7499ZM34.5481 48.4322C33.6154 48.4322 32.8333 48.1167 32.2017 47.4857C31.5707 46.8541 31.2552 46.072 31.2552 45.1393C31.2552 44.2061 31.5707 43.4001 32.2017 42.7213C32.8333 42.0424 33.6154 41.703 34.5481 41.703C35.4813 41.703 36.2873 42.0424 36.9662 42.7213C37.645 43.4001 37.9844 44.2061 37.9844 45.1393C37.9844 46.072 37.645 46.8541 36.9662 47.4857C36.2873 48.1167 35.4813 48.4322 34.5481 48.4322ZM50.4856 48.4322C49.5529 48.4322 48.7708 48.1167 48.1392 47.4857C47.5082 46.8541 47.1927 46.072 47.1927 45.1393C47.1927 44.2061 47.5082 43.4001 48.1392 42.7213C48.7708 42.0424 49.5529 41.703 50.4856 41.703C51.4188 41.703 52.2248 42.0424 52.9037 42.7213C53.5825 43.4001 53.9219 44.2061 53.9219 45.1393C53.9219 46.072 53.5825 46.8541 52.9037 47.4857C52.2248 48.1167 51.4188 48.4322 50.4856 48.4322ZM8.14584 21.2499V13.4583C8.14584 11.9235 8.64758 10.6544 9.65105 9.65096C10.6545 8.64749 11.9236 8.14575 13.4583 8.14575H21.25V10.6249H13.4583C12.75 10.6249 12.1007 10.9201 11.5104 11.5103C10.9201 12.1006 10.625 12.7499 10.625 13.4583V21.2499H8.14584ZM21.25 76.8541H13.4583C11.9236 76.8541 10.6545 76.3523 9.65105 75.3489C8.64758 74.3454 8.14584 73.0763 8.14584 71.5416V63.7499H10.625V71.5416C10.625 72.2499 10.9201 72.8992 11.5104 73.4895C12.1007 74.0798 12.75 74.3749 13.4583 74.3749H21.25V76.8541ZM63.75 76.8541V74.3749H71.5417C72.25 74.3749 72.8993 74.0798 73.4896 73.4895C74.0799 72.8992 74.375 72.2499 74.375 71.5416V63.7499H76.8542V71.5416C76.8542 73.0763 76.3524 74.3454 75.349 75.3489C74.3455 76.3523 73.0764 76.8541 71.5417 76.8541H63.75ZM74.375 21.2499V13.4583C74.375 12.7499 74.0799 12.1006 73.4896 11.5103C72.8993 10.9201 72.25 10.6249 71.5417 10.6249H63.75V8.14575H71.5417C73.0764 8.14575 74.3455 8.64749 75.349 9.65096C76.3524 10.6544 76.8542 11.9235 76.8542 13.4583V21.2499H74.375Z" fill="#153D5D"/>
</g>
</svg>
