<svg width="30" height="30" viewBox="0 0 30 30" fill="none" xmlns="http://www.w3.org/2000/svg">
<mask id="mask0_42_1216" style="mask-type:alpha" maskUnits="userSpaceOnUse" x="0" y="0" width="30" height="30">
<rect width="30" height="30" fill="#D9D9D9"/>
</mask>
<g mask="url(#mask0_42_1216)">
<path d="M15 25.875C13.0417 25.875 11.4375 25.6453 10.1875 25.1859C8.9375 24.7264 8.3125 24.1331 8.3125 23.4062C8.3125 23.0521 8.50521 22.7083 8.89062 22.375C9.27604 22.0417 9.80208 21.7604 10.4688 21.5312L11.1562 22.0625C10.7604 22.2083 10.3542 22.4062 9.9375 22.6562C9.52083 22.9062 9.27083 23.1458 9.1875 23.375C9.29167 23.8125 9.89062 24.1927 10.9844 24.5156C12.0781 24.8385 13.4115 25 14.9844 25C16.5573 25 17.8958 24.8385 19 24.5156C20.1042 24.1927 20.7083 23.8125 20.8125 23.375C20.7708 23.1458 20.5156 22.9062 20.0469 22.6562C19.5781 22.4062 19.1354 22.2083 18.7188 22.0625L19.4062 21.5312C20.1354 21.7604 20.6979 22.0417 21.0938 22.375C21.4896 22.7083 21.6875 23.0474 21.6875 23.3922C21.6875 24.1232 21.0625 24.7198 19.8125 25.1819C18.5625 25.644 16.9583 25.875 15 25.875ZM15.0312 21.0312C17.1146 19.3854 18.6719 17.7865 19.7031 16.2344C20.7344 14.6823 21.25 13.1667 21.25 11.6875C21.25 9.48 20.5781 7.81354 19.2344 6.68813C17.8906 5.56271 16.4844 5 15.0156 5C13.5469 5 12.1354 5.56354 10.7812 6.69062C9.42708 7.8175 8.75 9.48625 8.75 11.6969C8.75 13.149 9.26562 14.6458 10.2969 16.1875C11.3281 17.7292 12.9062 19.3438 15.0312 21.0312ZM15 22.125C12.6081 20.2892 10.8226 18.5063 9.64344 16.7763C8.46448 15.0465 7.875 13.3519 7.875 11.6925C7.875 10.4392 8.08854 9.34375 8.51562 8.40625C8.94271 7.46875 9.5 6.68229 10.1875 6.04688C10.875 5.41146 11.6423 4.93229 12.4894 4.60938C13.3363 4.28646 14.1748 4.125 15.005 4.125C15.835 4.125 16.6719 4.28646 17.5156 4.60938C18.3594 4.93229 19.125 5.41146 19.8125 6.04688C20.5 6.68229 21.0573 7.46958 21.4844 8.40875C21.9115 9.34813 22.125 10.441 22.125 11.6875C22.125 13.3477 21.5355 15.0431 20.3566 16.7738C19.1774 18.5046 17.3919 20.2883 15 22.125ZM15.0156 13.4062C15.526 13.4062 15.9635 13.2292 16.3281 12.875C16.6927 12.5208 16.875 12.0781 16.875 11.5469C16.875 11.0156 16.6915 10.5677 16.3244 10.2031C15.9571 9.83854 15.5156 9.65625 15 9.65625C14.5 9.65625 14.0625 9.83979 13.6875 10.2069C13.3125 10.5742 13.125 11.0156 13.125 11.5312C13.125 12.0729 13.3125 12.5208 13.6875 12.875C14.0625 13.2292 14.5052 13.4062 15.0156 13.4062Z" fill="#1C1B1F"/>
</g>
</svg>
