<?xml version="1.0" encoding="UTF-8"?>
<svg id="Layer_1" data-name="Layer 1" xmlns="http://www.w3.org/2000/svg" viewBox="0 0 800 600">
  <defs>
    <style>
      .cls-1 {
        fill: none;
        stroke: #000;
        stroke-linecap: round;
        stroke-linejoin: round;
        stroke-width: .5px;
      }
    </style>
  </defs>
  <g id="Georgia">
    <path class="cls-1" d="m30,139.55l.59-2.63,7.49-19.59,1.51-2.41,2.63-1.76,7.46-2.01h7.59s27.21,10.21,27.21,10.21l4.39.54,3.44-.92,7.14-3.74,4.01-.48,3.21,1.66.98.75,5.54,4.24,11.31,3.94,3.56,2.09,15.09,12.18,3.39.85,11.49-1.52,3.76.78,3.57,1.81,3.4,2.82,3.84,1.67,7.89-1.54,3.35,1.3,1,1.5,1.55,3.54,1.03,1.55,1.6,1.23,5.76,1.81,2.91,1.73,4.9,5.07,2.98,1.66,4.04.34,8.08-1.09,4.01.45,7.18,2.07,3.47.35,7.68-.88,3.24.16,3.19.89,3.47,1.73,3.49,1.03,3.53.2,3.52-.71,8.72-4.88-1.55,3.58-1.21,3.93.4,4.33.06,4.2-1.55,4.26-2.2,3.66-2.55,2.91-2.1,3.44-5.76,2.48-10.72,1.99-.85,1.13-1.73,2.28,1.95,2.52.93,3.14.6,3.54.18.54.89,2.67.56,3.26-1.7,2.32-1.38.88-1.19,1.28-.08,1.62.81,1.38,1.17,6.92-.15,3.88.45,3.66,3.11,5.35.41,3.59.33,2.88-.97,2.68-1.98,1.24-2.3,1.89-1.75,2.56-.15.21-8.68,8.45-9.52,5.55-.34.2-5.45,1.84-1.5,1.88-2.43,3.05-4.18,2.64-1.24.6-2.62,1.27-.55.26-5.63-35.04-1.92-5.95-2.8-5.02-3.64-3.93-4.51-2.61-8.4-1.56-1.79-1.01-1.78-1.65-2.67-1.49-2.8-1.06-2.21-.32-1.28.38-2.22,1.37-1.4.29-1.18-.72-5.02-7.66-2.53-9.27-4.58-8.01-1.89-4.32-2.73.08-4.35,1.97-2.78-.96-3.29-5.07-1.92-1.18-.04-.77-2.58-4.48-.75-.61-8.04-3.19-11.05-1.53-5.14.28-3.56.9-1.35.13-1.31-.48-2.12-2.14-1.12-.47-.49-.41-1.89-2.03-.97-.76-1.1-.41-3.5-.62-8.85-4.28-4.09-.47-2.87,3.72-1.11-1.21-1.62-4.07-1.02-1.96-2.5-2.55-1.1-1.64.49-4.79-1.72-4.46-2.42-4.09-1.78-2.21-3.4-1.6-6.04-1.83-3.55-3.57-1.59-.78-5.09-.83-3.42-1.42-2.63-.58Z"/>
    <path class="cls-1" d="m292.14,162.87l6.65.94,6.27,4.25,2.91,2.93,3.18,2.49,6.73,3.79,2.13.46,1.56-.65,2.96-2.8,1.92-.92,3.45-.08,5.14-1.59,4.39.12,4.24,1.12,3.08,2.01,3.1,2.96,3.2,2.1,9.4,3.52v2.01s-.83,2.5-.83,2.5l-.31,2.44,1,1.58,5.45,3.81,11.84,11.24,2.17,1.19-3.61,1.47-3.76,5.3-2.45,2.3-.3,4.7-1.97,3.15-3.08-.55-6.84-2.66-8.03,1.09-11.98-5.43-1.42.71-1.33,1.15-2.99,1.34-6.45-.25-15.67-3.84-2.73-1.29-2.76-.07-1.37,2.52-1.15,2.77-1.2.92-1.33.34-4.09.3-3.5,1.98-2.73,5.21,6.05,5.23,12.36,7.05,5.01,5.12-2.93,6.26,8.39,16.78-2.12.1-2.01.55-5.54.38-3.35,3.44-1.7,5.14-1.68,1.5-1.07,2.34-.1,4.36-1.48,3.52-7.75,8.95-4.77,7.93-1.27,3.89-2.06,2.42-1.11,6.22.15,7.82-2.28,4.61-4.38.51-5.84-2.95-7.06-.91-5.58-3.76-6.11-1.52-13.68,2.31-7.07.25-6.94,1.32-1.51,4.12-.49,2.85-.58.74-1.82,3.16-3.35-5.89-1.17-.98-1.13-1.25-.54-2.83-.21-5.07-.89-6.72-5.84-20.46-.43-.89-.78-1.11-2.96-2.98-.39-1.05-.4-2.48.55-.26,2.62-1.27,1.24-.6,4.18-2.64,2.43-3.05,1.5-1.88,5.45-1.84.34-.2,9.52-5.55,8.68-8.45.15-.21,1.75-2.56,2.3-1.89,1.98-1.24.97-2.68-.33-2.88-.41-3.59-3.11-5.35-.45-3.66.15-3.88-1.17-6.92-.81-1.38.08-1.62,1.19-1.28,1.38-.88,1.7-2.32-.56-3.26-.89-2.67-.18-.54-.6-3.54-.93-3.14-1.95-2.52,1.73-2.28.85-1.13,10.72-1.99,5.76-2.48,2.1-3.44,2.55-2.91,2.2-3.66,1.55-4.26-.06-4.2-.4-4.33,1.21-3.93,1.55-3.58.61-.34,2.82-.87,18.66-1.6.89.12Z"/>
    <path class="cls-1" d="m462.63,263.6l1.4,1.06,2.09,1.03,2.06-.33,1.63-1.43,2.74-3.8,1.49-1.64,4.8-2.25,10.56-.5,3.86-1.18.22.5,1.39,3.96,2.26,3.12,5.23,1.45,3.68,6.58,1.89,1.67,1.71,2.46-3.55,4.43-1.69,5.34,1.24.74.79,1.52.23,2.4.49,2.31,1.48,1.5,1.52,2.02.24,4.5-.39,4.69,1.87,3.96.88,4.68-1.89,2.6-2.28,1.75-.76,1.97-.98,1.8-1.39.94-1.32,1.2-1.7,7.27-.24,7.65-.08.23-.93,2.71.47,2.48,3.07,1.65.52,3.81,1.49-1.38,1.73-1.61,3.2-2.39,3.79.13,7.9,1.78,3.8,2.11.44,1.46.95,3.17.83,5.33,3.62,4.28,3,4.66-1.49,4.19-4.06.19-3.07,2.96.36,5.69-2.14,2.55.02,3.79-1.78,3.9-7.7.19-2.54-1.02-1.78-2.16-2.01-.98-6.65,3.25-5.35.94-5.2-1.29-3.49.6-3.41,1.13-25.51-2.52-4.65-5.66-7.43.13-4.16.62-3.8-2.19-3.57-1.37-1.63-3.91-3.4-.58-3.77-3.26-1.08-1.7-1.49-1.26-.58-2.42-1.04-2.04-3.9-1.82-7.16-1.75-3.08.2.8-5.75,3.98-3.55,1.68-5.32.46-6.27,3.07-3.09,3.57-2.7,2.02-3.84,1.48-4.31,1.72-1.44.74-.79.57-.61.63-3.89-.68-4.74.54-2.63.36-1.79,2.24-1.6,5.21-3.72,8.46-2.3.08-4.88,1.31-4.82-2.5-2.99-3.51.48-3.04,1.69-3.2.78-4.29-.66-3.9-2.39,8.99-7.26,15.33-1.22,2.11-1.01,2.41-4.36,5.87-4.23.66-7.57Z"/>
    <path class="cls-1" d="m405.05,215.45l10.3,2.92,4.17,1.05,7.59,3.74,1.85,1.63,4.56,5.45,2.04,1.31,10.27,2.51,2.93,1.49,1.99,1.01,1.23,4.38-2.54,3.63-3.85,2.76-3.1,3.04-.34,4.43,3.15,3.91,4.97,1.34,5.39.42,4.45,1.17,2.51,1.95-.66,7.57-5.87,4.23-2.41,4.36-2.11,1.01-15.33,1.22-8.99,7.26-2.32-.86-7.11-2.63-11.25.92-11.7-1.27-10.48,5.49-3.88,3.94-4.65,1.92-7.9.71-5.26-2.96-2.36-.44-2.75-2.22-1.4-4.69-5.6-5.24-6.09-3.89-2.74.09-2.44,2.46-2.9-.23-2.78-1.17-11.8,3.97-.09-3.19-.87-2.82-.03-3.8-.96-3.45-8.39-16.78,2.93-6.26-5.01-5.12-12.36-7.05-6.05-5.23,2.73-5.21,3.5-1.98,4.09-.3,1.33-.34,1.2-.92,1.15-2.77,1.37-2.52,2.76.07,2.73,1.29,15.67,3.84,6.45.25,2.99-1.34,1.33-1.15,1.42-.71,11.98,5.43,8.03-1.09,6.84,2.66,3.08.55,1.97-3.15.3-4.7,2.45-2.3,3.76-5.3,3.61-1.47,2.11,1.16,21.16,6Z"/>
    <path class="cls-1" d="m543.21,237.52l.4.13,4.08,2.34,1.72,1.42,3.25,3.48,1.31,2.02,2.72,8.74,1.37,1.44.97-1.05,1.78-8.26,3.19-6.94.69-2.42,2.83-3.82,4.81.97,12.04,8.68,1.95.98,2.02.43,2.09-.38.99-.44,3.08-1.37,2.1-.26,3.57,1.35,3.18,2.76,10.86,13.26,1.21,2.02.87,1.96-.03.04-3.57,5.3-1.53,6.78.34,4.55-1.71,3.79-2.45,2.21-1.07,3.49,1.41,5.96-.99,5.78-2.17.83-2.31.34-2.86,2.63-2.69,3.38-2.26,7.52-2.1,3.39-1.7,8.51-1.53,3.45,1.32,5.74.32,4.18,1.98,4.7-1.71,4.05,1.04,4.59,2.48.9,2.63.24,5.4,1.41,3.94,4.8-8.86,1.27-6.04-3.96-3.27,2.03-2.95,3.22,3.47,2.09,1.48,4.36-5.51.34-5.54-1.32-2.37.93-1.85,2.73-1.33,4.16-2.6,3.2-6.77-3.54-2.82-.24-1.71,3.07-3.12,1.99-3.18-.1-2.22,5.06-2.13.89-1.37,2.36-5.78,2.93-5.2-4.69-5.14-3.71-6.11-.81-.02-3.79,2.14-2.55-.36-5.69,3.07-2.96,4.06-.19,1.49-4.19-3-4.66-3.62-4.28-.83-5.33-.95-3.17-.44-1.46-3.8-2.11-7.9-1.78-3.79-.13-3.2,2.39-1.73,1.61-1.49,1.38-.52-3.81-3.07-1.65-.47-2.48.93-2.71.08-.23.24-7.65,1.7-7.27,1.32-1.2,1.39-.94.98-1.8.76-1.97,2.28-1.75,1.89-2.6-.88-4.68-1.87-3.96.39-4.69-.24-4.5-1.52-2.02-1.48-1.5-.49-2.31-.23-2.4-.79-1.52-1.24-.74,1.69-5.34,3.55-4.43-1.71-2.46-1.89-1.67-3.68-6.58-5.23-1.45-2.26-3.12-1.39-3.96-.22-.5,1.28-.39,1.54-1.58,2.07-2.12,2.04-4.23,2.58-3.06,9.78-.21,4.49-1.47,8.58-4.62,3.19-.9,5.53-.42,4.71.6,4.17,1.35Z"/>
    <path class="cls-1" d="m616.32,264.56l1.21,2.71,1.12,1.74,3.67,1.52,4.7-.66,8.9-2.69,6.35.15,9.24,1.64,8.61,3.41,4.51,5.4v.12s-.35,3.45-.35,3.45l-12.69,33.29,1.11,3.47,3.33,2.15,4.43,2.08,12.11,8.52,7.7,2,1.52,1.51,3.12,7.76,1.17,1.65,1.48.83,2.08.13.79-.31,1.46-1.15.93-.23.71.37,1.85,1.62.92.48,1.99-.14,1.51-.39,1.08.74.74,3.24,2.67,1.25,3.39.08,6.47-1.34.03-.02.03-.02.93-.26.93-.09.93.09,1.08.3,2.88,2.34,4.82,5.8,3.14,1.42,6.55.56,2.7,1.51,2.68,3.64-4.21,8.7-2.36,3.85-4.74,5.81-1.61,1.44-1.76.86-2.3.22-5.16-1.18-2.41.27-2.13,2.27-1.04,5.06.05,7.49,1.41,6.64,2.97,2.49.97-.8.55-1.36.73-1.11,1.53-.06.25.82,2.45,4.71.16,1.07.88,5.75.98,3.2,1.9,2.45,5.77,4,1.29.6,2.25.55,5.16,4.82,10.74,4.55,5.41,3.24,1.74,4.1,1.71-.68.77.51.13.09.74,1.26,2.13,2.4,3.47,5.33.69,2.14-.34.18-.91-.14-.97,1.14-.22,1.13-.12,2.57-.23.96-.65.93-1.46,1.37-.65.91-1.07,3.95-.58,5.03-.92,4.71-.61.87-1.52,2.14-2.17.35-2.1-.58-2.16-.21-2.33,1.47-1.24,2.34-.62,2.3-.97,1.53-2.41.11-1.98-1.22-3.08-4.17-1.81-1.6-6.57-2.15-2.29-1.37-6.5-5.92-3.2-4.02-1.74-1.71-1.98-.7-8.29.04-2.46.57-2.82,1.82-2.9,1.87-2.18.8-2.67.24-5.32-.66-16.37-5.94-5.56-3.42-2.12-1.3-4.56-3.92-2.63-4.19,2.45-3.07,2.53-.9,1.57-.86-.14-.91-2.58-1.03-7.18-1.46-15.86-6.21-3.59-3.4-1.6-1.84-1.63-.3-3.65,1.12-2.22.2-1.72-.34-5.31-2.76h0s-.34-2.51-.34-2.51l-.7-1.92-.92-1.76-.79-3.68-2.05-2.93-3.44-.99-3.53-.26-1.98-1.31-.8-2.87-.6-4,3.78-8.75-2.11-7.91-.85-4.73-1.94-3.98-4.21-.45-3.65-2.66-2.42-4.03-2.88-3.29-1.48-4.36-3.47-2.09,2.95-3.22,3.27-2.03,6.04,3.96,8.86-1.27-3.94-4.8-5.4-1.41-2.63-.24-2.48-.9-1.04-4.59,1.71-4.05-1.98-4.7-.32-4.18-1.32-5.74,1.53-3.45,1.7-8.51,2.1-3.39,2.26-7.52,2.69-3.38,2.86-2.63,2.31-.34,2.17-.83.99-5.78-1.41-5.96,1.07-3.49,2.45-2.21,1.71-3.79-.34-4.55,1.53-6.78,3.57-5.3.02-.04Z"/>
    <path class="cls-1" d="m411.03,479.71l1.25-3.81-1.57-3.46-2.98-2.78-3.01-1.77-3.48-.94-3.21.23-10.15,2.85-1.59-1.16-2.64-6.52-2.23-2.55-2.17-.27-2.43.27-3-.95,5.97-3.07,1.61-1.41,1.49-2.12-.15-.76-3.23-.42-3.4-1.62-5.32-4.69-8.12-5.56-1.6-1.76-3.3-6.23-.86-.98-.98-.39-.54-.58-.45-.67-.67-.63-3.25-1.1-.84-.5-.91-1.66-.62-1.83-.79-.96-1.48.94-2.71,3.14-2.08-.68-2.1-2.31-2.83-1.69.92-1.46,2.18-1.85.89-1.07.46-1.31.23-1.46.36-1.48.86-1.38-2.1-1.01-15.44-1.33-5.56.47-2.17.72-.47.16-1.09-3.1-3.25-5.22-2.59-3.02-2.88-2.7-1.08-1.84-.74-2.11.26-2.8,1.27-1.94.1-5.13-1.08-3.14-.49-1.44,5.46-.59,2.45.89,2.51.45,1.82-1.51.99-2.64,2.45-1.67,2.84-.07,6.82,4.08,11.65-2.99,9.48,2.02,4.97.08,4.72-1.98,11.33-1.01,1.88.7,1.85.28,32.96-13.51,3.08-.2,7.16,1.75,3.9,1.82,1.04,2.04.58,2.42,1.49,1.26,1.08,1.7,3.77,3.26,3.4.58,1.63,3.91,3.57,1.37,3.8,2.19,4.16-.62,7.43-.13,4.65,5.66-5.44,5.78-6.59.27-4.87-.81-2.52,4.63-.7,14.75-1.14,3.6-1.57,1.26-.73,2.35,3.86.75,4.85-.21,5.3-1.33,5.26.3,2.88,3.08,2.01,4.25,1.03.89.43,2.03.34,3.16.05,3.21.84,3.39,2.3,1.46,1.16,2.81.43,3.15-1.6,6.48.79,6.47,1.42,2.11,1.15,2.34,1.17,7.59v.05s-.04.01-.04.01l-2.42.59-10.21.22-4.73,1.98-5.14,4.54-2.16.92-2.7.23-17.99-2.54-4.69.18-5.96,2.44-1.08.24-1.09-.02-1.1-.28Z"/>
    <path class="cls-1" d="m301.9,432.05l-1.45.08-19.35-7.58-5.43.31-2.64-.22-1.83-1.73-1.57-.94-1.68-.05-3.47,1-1.57-.71-1.55-.26-1.55.22-1.6.75-3.9,1.24-7.9-3.02-4.43,1.78-1.52,1.17-3.45,4.97-4.42,3.79-1.06.62-1.35-.57-4.39-4.1-1.46-.49-3.23-.4-1.29-.52-.47-.93.02-1.2.12-1.1-.15-.58h-.84s-2.77,1.26-2.77,1.26l-3.29.26-1.4-.27-11.75-4.96,7.23-13.05,3.25-4.41,6.65-4.36,1.86-4.45,5.17-8.52.29-1.74v-1.34s.17-1.17.17-1.17l.67-1.31,1.79-2.47.61-1.24.23-1.34v-12l14.42.72,2.92,1.74,1.68,1,.58,3.11,5.41,2.27,2.15,1.41,1.35.6,3.37,2.66,1.4-.23.14-.05,2.75-1.01,5.37-.65,3.52,1.85,1.99,1.16,3.24.83,2.01-.32,6-.96,5.9-3.71,3-.92,2.47.55,4.19,4.36,1.41.73,2.8.27.49,1.44,1.08,3.14-.1,5.13-1.27,1.94-.26,2.8.74,2.11,1.08,1.84,2.88,2.7,2.59,3.02,3.25,5.22,1.09,3.1-.16.05-2.21,1.71-1.13,2.48-1.04,6-1.11,2.38-2.39,2.54-3.31,5.01-2.29,1.52-1.33.07Z"/>
    <path class="cls-1" d="m583.32,452.76l-1.37.88-2.5,2.27-1.34.92-4.18.14-10.65-1.7-2.14,2.18.91,2.07,4.14,2,.75,1.06.43.61-1.09,1.53-2.9.39-16.17-.33-4.61-1.84-2.23-.3-2.37,1.08-1.42,1.9-1.34,2.33-1.62,1.45-2.26-.65-.6-1.11-.4-1.5-.58-1.11-1.19.04-.72.55-2.22,2.49-2.68.78-2.48-.17-2.41-.89-5.88-3.58-1.36-.16-1.3.42-.9.81-.79.92-1.02.7-2.59.43-2.04-.78-5.33-3.72-2.99-1.24-1.17.02-1.31.93-.29,1.09-.07,1.24-.56,1.43-1.73,1.73-2.17,1.17-2.33.42-4.67-1.32-2.2.23-4.43,2.01-2.53.62v-.05s-1.18-7.59-1.18-7.59l-1.15-2.34-1.42-2.11-.79-6.47,1.6-6.48-.43-3.15-1.16-2.81-2.3-1.46-.84-3.39-.05-3.21-.34-3.16-.43-2.03-1.03-.89-2.01-4.25-2.88-3.08-5.26-.3-5.3,1.33-4.85.21-3.86-.75.73-2.35,1.57-1.26,1.14-3.6.7-14.75,2.52-4.63,4.87.81,6.59-.27,5.44-5.78,25.51,2.52,3.41-1.13,3.49-.6,5.2,1.29,5.35-.94,6.65-3.25,2.01.98,1.78,2.16,2.54,1.02,7.7-.19,1.78-3.9,6.11.81,5.14,3.71,5.2,4.69,5.78-2.93,1.98.54.35,2.08,1.52,2.05,3.27-.17,8.99,4.65,2.72.23,2.69.66,3.19,1.59,4.23.26,4.15-1.37,3.14-4.63-1.05-3.63-1.79,1.4-1.47,2.08-2.52.66-2.57-.66-1.94-.96-1.69-1.5-.51-2.58-.76-2.59-2.11-1.96.25-2.54,3.24-3.09,2.6-3.2,1.33-4.16,1.85-2.73,2.37-.93,5.54,1.32,5.51-.34,2.88,3.29,2.42,4.03,3.65,2.66,4.21.45,1.94,3.98.85,4.73,2.11,7.91-3.78,8.75.6,4,.8,2.87,1.98,1.31,3.53.26,3.44.99,2.05,2.93.79,3.68.92,1.76.7,1.92.34,2.49h0s-2.06-1.06-2.06-1.06l-3.61-.19-3.54,1.24-16.74,13.91-10.52,8.73Z"/>
    <path class="cls-1" d="m305.28,377.86l-2.8-.27-1.41-.73-4.19-4.36-2.47-.55-3,.92-5.9,3.71-6,.96-2.01.32-3.24-.83-1.99-1.16-3.52-1.85-5.37.65-2.75,1.01-.14.05-1.4.23-3.37-2.66-1.35-.6-2.15-1.41-5.41-2.27-.58-3.11-1.68-1-2.92-1.74-14.42-.72v-.64l-1.32-9.33-.19-3.37-.5-2.05-4.46-7.86,1.82-3.16.58-.74.49-2.85,1.51-4.12,6.94-1.32,7.07-.25,13.68-2.31,6.11,1.52,5.58,3.76,7.06.91,5.84,2.95-2.53,3.91,2.68,3.92,5.47.96,2.01.6,1.85-.59,3.35-2.19,3.93.95,2.17,3.53,1.42,4.35,3.19,1.9,3.93,1.17,2.83,2.14,3.03,1.49,2.1,1.32,2.22,1.07,3.49-.28,3.34.93,1.69,6.43.23,7.5-2.84.07-2.45,1.67-.99,2.64-1.82,1.51-2.51-.45-2.45-.89-5.46.59Z"/>
    <path class="cls-1" d="m547.84,391.63l1.37-2.36,2.13-.89,2.22-5.06,3.18.1,3.12-1.99,1.71-3.07,2.82.24,6.77,3.54-3.24,3.09-.25,2.54,2.11,1.96.76,2.59.51,2.58,1.69,1.5,1.94.96,2.57.66,2.52-.66,1.47-2.08,1.79-1.4,1.05,3.63-3.14,4.63-4.15,1.37-4.23-.26-3.19-1.59-2.69-.66-2.72-.23-8.99-4.65-3.27.17-1.52-2.05-.35-2.08-1.99-.54Z"/>
    <path class="cls-1" d="m427.25,289.25l3.9,2.39,4.29.66,3.2-.78,3.04-1.69,3.51-.48,2.5,2.99-1.31,4.82-.08,4.88-8.46,2.3-5.21,3.72-2.24,1.6-.36,1.79-.54,2.63.68,4.74-.63,3.89-.57.61-.74.79-1.72,1.44-1.48,4.31-2.02,3.84-3.57,2.7-3.07,3.09-.46,6.27-1.68,5.32-3.98,3.55-.8,5.75-32.96,13.51-1.85-.28-1.88-.7-11.33,1.01-4.72,1.98-4.97-.08-9.48-2.02-11.65,2.99-6.82-4.08-.23-7.5-1.69-6.43-3.34-.93-3.49.28-2.22-1.07-2.1-1.32-3.03-1.49-2.83-2.14-3.93-1.17-3.19-1.9-1.42-4.35-2.17-3.53-3.93-.95-3.35,2.19-1.85.59-2.01-.6-5.47-.96-2.68-3.92,2.53-3.91,4.38-.51,2.28-4.61-.15-7.82,1.11-6.22,2.06-2.42,1.27-3.89,4.77-7.93,7.75-8.95,1.48-3.52.1-4.36,1.07-2.34,1.68-1.5,1.7-5.14,3.35-3.44,5.54-.38,2.01-.55,2.12-.1.96,3.45.03,3.8.87,2.82.09,3.19,11.8-3.97,2.78,1.17,2.9.23,2.44-2.46,2.74-.09,6.09,3.89,5.6,5.24,1.4,4.69,2.75,2.22,2.36.44,5.26,2.96,7.9-.71,4.65-1.92,3.88-3.94,10.48-5.49,11.7,1.27,11.25-.92,7.11,2.63,2.32.85Z"/>
  </g>
</svg>