<svg width="80" height="80" viewBox="0 0 80 80" fill="none" xmlns="http://www.w3.org/2000/svg">
<mask id="mask0_42_1258" style="mask-type:alpha" maskUnits="userSpaceOnUse" x="0" y="0" width="80" height="80">
<rect width="80" height="80" fill="#D9D9D9"/>
</mask>
<g mask="url(#mask0_42_1258)">
<path d="M50.8533 35C51.7844 35 52.5694 34.6739 53.2083 34.0217C53.8472 33.37 54.1667 32.5783 54.1667 31.6467C54.1667 30.7156 53.8406 29.9306 53.1883 29.2917C52.5367 28.6528 51.745 28.3333 50.8133 28.3333C49.8822 28.3333 49.0972 28.6594 48.4583 29.3117C47.8194 29.9633 47.5 30.755 47.5 31.6867C47.5 32.6178 47.8261 33.4028 48.4783 34.0417C49.13 34.6806 49.9217 35 50.8533 35ZM29.1867 35C30.1178 35 30.9028 34.6739 31.5417 34.0217C32.1806 33.37 32.5 32.5783 32.5 31.6467C32.5 30.7156 32.1739 29.9306 31.5217 29.2917C30.87 28.6528 30.0783 28.3333 29.1467 28.3333C28.2156 28.3333 27.4306 28.6594 26.7917 29.3117C26.1528 29.9633 25.8333 30.755 25.8333 31.6867C25.8333 32.6178 26.1594 33.4028 26.8117 34.0417C27.4633 34.6806 28.255 35 29.1867 35ZM40 55.6667C43 55.6667 45.7778 54.8472 48.3333 53.2083C50.8889 51.5694 52.8333 49.3889 54.1667 46.6667H25.8333C27.1667 49.3889 29.1111 51.5694 31.6667 53.2083C34.2222 54.8472 37 55.6667 40 55.6667ZM40.0142 69C36.0047 69 32.2344 68.2392 28.7033 66.7175C25.1722 65.1958 22.1008 63.1306 19.4892 60.5217C16.8769 57.9128 14.8092 54.8453 13.2858 51.3192C11.7619 47.7925 11 44.0242 11 40.0142C11 36.0047 11.7608 32.2344 13.2825 28.7033C14.8042 25.1722 16.8694 22.1008 19.4783 19.4892C22.0872 16.8769 25.1547 14.8092 28.6808 13.2858C32.2075 11.7619 35.9758 11 39.9858 11C43.9953 11 47.7656 11.7608 51.2967 13.2825C54.8278 14.8042 57.8992 16.8694 60.5108 19.4783C63.1231 22.0872 65.1908 25.1547 66.7142 28.6808C68.2381 32.2075 69 35.9758 69 39.9858C69 43.9953 68.2392 47.7656 66.7175 51.2967C65.1958 54.8278 63.1306 57.8992 60.5217 60.5108C57.9128 63.1231 54.8453 65.1908 51.3192 66.7142C47.7925 68.2381 44.0242 69 40.0142 69Z" fill="white"/>
</g>
</svg>
