<svg width="85" height="85" viewBox="0 0 85 85" fill="none" xmlns="http://www.w3.org/2000/svg">
<mask id="mask0_42_1315" style="mask-type:alpha" maskUnits="userSpaceOnUse" x="0" y="0" width="85" height="85">
<rect width="85" height="85" fill="#D9D9D9"/>
</mask>
<g mask="url(#mask0_42_1315)">
<path d="M28.0677 37.276C25.5 37.276 23.3086 36.3684 21.4935 34.5533C19.6784 32.7382 18.7708 30.5468 18.7708 27.9791C18.7708 25.4114 19.6784 23.22 21.4935 21.4049C23.3086 19.5898 25.5 18.6823 28.0677 18.6823C30.6354 18.6823 32.8268 19.5898 34.6419 21.4049C36.457 23.22 37.3646 25.4114 37.3646 27.9791C37.3646 30.5468 36.457 32.7382 34.6419 34.5533C32.8268 36.3684 30.6354 37.276 28.0677 37.276ZM28.0624 34.7968C29.9548 34.7968 31.5651 34.1345 32.8932 32.81C34.2213 31.4854 34.8854 29.8769 34.8854 27.9844C34.8854 26.092 34.2231 24.4817 32.8985 23.1536C31.5739 21.8255 29.9654 21.1614 28.073 21.1614C26.1806 21.1614 24.5703 21.8237 23.2422 23.1483C21.914 24.4729 21.25 26.0814 21.25 27.9738C21.25 29.8662 21.9123 31.4765 23.2369 32.8046C24.5614 34.1328 26.1699 34.7968 28.0624 34.7968ZM57.0208 66.2291C54.4531 66.2291 52.2617 65.3216 50.4466 63.5065C48.6315 61.6914 47.7239 59.5 47.7239 56.9323C47.7239 54.3645 48.6315 52.1731 50.4466 50.358C52.2617 48.5429 54.4531 47.6354 57.0208 47.6354C59.5885 47.6354 61.7799 48.5429 63.595 50.358C65.4101 52.1731 66.3177 54.3645 66.3177 56.9323C66.3177 59.5 65.4101 61.6914 63.595 63.5065C61.7799 65.3216 59.5885 66.2291 57.0208 66.2291ZM57.0155 63.75C58.9079 63.75 60.5182 63.0877 61.8463 61.7631C63.1745 60.4385 63.8385 58.83 63.8385 56.9376C63.8385 55.0451 63.1762 53.4349 61.8516 52.1067C60.5271 50.7786 58.9186 50.1145 57.0261 50.1145C55.1337 50.1145 53.5234 50.7768 52.1953 52.1014C50.8672 53.426 50.2031 55.0345 50.2031 56.9269C50.2031 58.8194 50.8654 60.4296 52.19 61.7578C53.5146 63.0859 55.1231 63.75 57.0155 63.75ZM21.3385 65.3437L19.6562 63.6614L63.75 19.5677L65.4323 21.25L21.3385 65.3437Z" fill="#153D5D"/>
</g>
</svg>
