<svg width="80" height="80" viewBox="0 0 80 80" fill="none" xmlns="http://www.w3.org/2000/svg">
<mask id="mask0_42_1246" style="mask-type:alpha" maskUnits="userSpaceOnUse" x="0" y="0" width="80" height="80">
<rect width="80" height="80" fill="#D9D9D9"/>
</mask>
<g mask="url(#mask0_42_1246)">
<path d="M24.5 65.6667C24.1695 65.6667 23.8922 65.555 23.6684 65.3317C23.445 65.1078 23.3334 64.8306 23.3334 64.5V58.3333C22.2222 58.0555 21 57.125 19.6667 55.5417C18.3334 53.9583 17.6667 52.1111 17.6667 50V20C17.6667 16.8872 19.4578 14.6092 23.04 13.1658C26.6222 11.7219 32.2747 11 39.9975 11C47.9992 11 53.7222 11.6936 57.1667 13.0808C60.6111 14.4686 62.3334 16.775 62.3334 20V50C62.3334 52.1111 61.6667 53.9583 60.3334 55.5417C59 57.125 57.7778 58.0555 56.6667 58.3333V64.5C56.6667 64.8306 56.5547 65.1078 56.3309 65.3317C56.1075 65.555 55.8306 65.6667 55.5 65.6667C55.1695 65.6667 54.8925 65.555 54.6692 65.3317C54.4453 65.1078 54.3334 64.8306 54.3334 64.5V59H25.6667V64.5C25.6667 64.8306 25.555 65.1078 25.3317 65.3317C25.1078 65.555 24.8306 65.6667 24.5 65.6667ZM20 37.6667H60V21.3333H20V37.6667ZM28.3534 51.6667C29.2845 51.6667 30.0695 51.3406 30.7084 50.6883C31.3472 50.0367 31.6667 49.245 31.6667 48.3133C31.6667 47.3822 31.3406 46.5972 30.6884 45.9583C30.0367 45.3194 29.245 45 28.3134 45C27.3822 45 26.5972 45.3261 25.9584 45.9783C25.3195 46.63 25 47.4217 25 48.3533C25 49.2844 25.3261 50.0694 25.9784 50.7083C26.63 51.3472 27.4217 51.6667 28.3534 51.6667ZM51.6867 51.6667C52.6178 51.6667 53.4028 51.3406 54.0417 50.6883C54.6806 50.0367 55 49.245 55 48.3133C55 47.3822 54.6739 46.5972 54.0217 45.9583C53.37 45.3194 52.5784 45 51.6467 45C50.7156 45 49.9306 45.3261 49.2917 45.9783C48.6528 46.63 48.3334 47.4217 48.3334 48.3533C48.3334 49.2844 48.6595 50.0694 49.3117 50.7083C49.9634 51.3472 50.755 51.6667 51.6867 51.6667Z" fill="white"/>
</g>
</svg>
