<svg width="80" height="80" viewBox="0 0 80 80" fill="none" xmlns="http://www.w3.org/2000/svg">
<mask id="mask0_42_1270" style="mask-type:alpha" maskUnits="userSpaceOnUse" x="0" y="0" width="80" height="80">
<rect width="80" height="80" fill="#D9D9D9"/>
</mask>
<g mask="url(#mask0_42_1270)">
<path d="M16 65.6667C14.5556 65.6667 13.3611 65.1945 12.4167 64.25C11.4722 63.3056 11 62.1112 11 60.6667V29.3334C11 27.8889 11.4722 26.6945 12.4167 25.75C13.3611 24.8056 14.5556 24.3334 16 24.3334H31V20.3334C31 18.8889 31.4722 17.6945 32.4167 16.75C33.3611 15.8056 34.5556 15.3334 36 15.3334H44C45.4444 15.3334 46.6389 15.8056 47.5833 16.75C48.5278 17.6945 49 18.8889 49 20.3334V24.3334H64C65.4445 24.3334 66.6389 24.8056 67.5833 25.75C68.5278 26.6945 69 27.8889 69 29.3334V60.6667C69 62.1112 68.5278 63.3056 67.5833 64.25C66.6389 65.1945 65.4445 65.6667 64 65.6667H16ZM33.3333 24.3334H46.6667V20.3334C46.6667 19.6667 46.3889 19.0556 45.8333 18.5C45.2778 17.9445 44.6667 17.6667 44 17.6667H36C35.3333 17.6667 34.7222 17.9445 34.1667 18.5C33.6111 19.0556 33.3333 19.6667 33.3333 20.3334V24.3334ZM40 49.5C41.2778 49.5 42.3472 49.0695 43.2083 48.2084C44.0694 47.3473 44.5 46.2778 44.5 45C44.5 43.7223 44.0694 42.6528 43.2083 41.7917C42.3472 40.9306 41.2778 40.5 40 40.5C38.7222 40.5 37.6528 40.9306 36.7917 41.7917C35.9306 42.6528 35.5 43.7223 35.5 45C35.5 46.2778 35.9306 47.3473 36.7917 48.2084C37.6528 49.0695 38.7222 49.5 40 49.5Z" fill="white"/>
</g>
</svg>
