<svg width="54" height="54" viewBox="0 0 54 54" fill="none" xmlns="http://www.w3.org/2000/svg">
<mask id="mask0_120_13" style="mask-type:alpha" maskUnits="userSpaceOnUse" x="0" y="0" width="54" height="54">
<rect x="0.239258" y="0.550415" width="53.4496" height="53.4496" fill="#D9D9D9"/>
</mask>
<g mask="url(#mask0_120_13)">
<path d="M26.964 25.9045C25.1266 25.9045 23.5538 25.2503 22.2454 23.9419C20.937 22.6335 20.2828 21.0606 20.2828 19.2233C20.2828 17.386 20.937 15.8131 22.2454 14.5047C23.5538 13.1963 25.1266 12.5421 26.964 12.5421C28.8013 12.5421 30.3742 13.1963 31.6826 14.5047C32.991 15.8131 33.6452 17.386 33.6452 19.2233C33.6452 21.0606 32.991 22.6335 31.6826 23.9419C30.3742 25.2503 28.8013 25.9045 26.964 25.9045ZM11.3745 42.0084V38.3421C11.3745 37.4001 11.6471 36.5343 12.1924 35.7448C12.7377 34.9553 13.4529 34.3392 14.3382 33.8963C16.337 32.9543 18.3933 32.2149 20.5072 31.6782C22.621 31.1415 24.7761 30.8731 26.9723 30.8731C29.1682 30.8731 31.3205 31.1415 33.4291 31.6782C35.5374 32.2149 37.591 32.9543 39.5898 33.8963C40.475 34.3392 41.1903 34.9553 41.7355 35.7448C42.2808 36.5343 42.5534 37.4001 42.5534 38.3421V42.0084H11.3745ZM26.964 23.6774C28.1889 23.6774 29.2374 23.2413 30.1097 22.369C30.982 21.4968 31.4181 20.4482 31.4181 19.2233C31.4181 17.9984 30.982 16.9498 30.1097 16.0776C29.2374 15.2053 28.1889 14.7692 26.964 14.7692C25.7391 14.7692 24.6905 15.2053 23.8182 16.0776C22.946 16.9498 22.5098 17.9984 22.5098 19.2233C22.5098 20.4482 22.946 21.4968 23.8182 22.369C24.6905 23.2413 25.7391 23.6774 26.964 23.6774ZM34.5872 34.2733V39.7814H40.3264V38.3421C40.3264 37.7909 40.1478 37.3056 39.7908 36.8862C39.4341 36.4664 39.013 36.1208 38.5275 35.8495C37.8939 35.524 37.2465 35.2335 36.5855 34.9781C35.9244 34.7224 35.2583 34.4874 34.5872 34.2733ZM21.5678 33.7037V36.4408H32.3602V33.7037C31.4753 33.4981 30.5794 33.3461 29.6726 33.2477C28.7662 33.1493 27.8598 33.1002 26.9534 33.1002C26.0466 33.1002 25.1435 33.1493 24.2442 33.2477C23.3448 33.3461 22.4527 33.4981 21.5678 33.7037ZM13.6016 39.7814H19.3407V34.2733C18.6696 34.4874 18.0036 34.7224 17.3425 34.9781C16.6814 35.2335 16.0341 35.524 15.4005 35.8495C14.915 36.1208 14.4939 36.4664 14.1372 36.8862C13.7801 37.3056 13.6016 37.7909 13.6016 38.3421V39.7814Z" fill="#153D5D"/>
</g>
</svg>
