<?xml version="1.0" encoding="UTF-8"?>
<svg id="Layer_1" data-name="Layer 1" xmlns="http://www.w3.org/2000/svg" viewBox="0 0 67.84 41.64">
  <defs>
    <style>
      .cls-1 {
        fill: #fff;
      }

      .cls-2 {
        stroke: #fff;
      }

      .cls-2, .cls-3 {
        fill: none;
        stroke-linecap: round;
      }

      .cls-3 {
        stroke: #153d5d;
      }

      .cls-4 {
        fill: #153d5d;
      }

      .cls-5 {
        fill: #183f5c;
        fill-rule: evenodd;
      }
    </style>
  </defs>
  <circle class="cls-4" cx="33.65" cy="20.5" r="11.5"/>
  <circle class="cls-4" cx="33.65" cy="20.5" r="11.5"/>
  <path class="cls-3" d="m.5,35.44c.13-.25.35-.47.56-.65.22-.2.49-.32.73-.49.46-.33.9-.7,1.34-1.05,1.18-.97,2.33-1.98,3.46-2.99.8-.71,1.61-1.4,2.32-2.2.23-.26.5-.5.79-.69.15-.09.02.1,0,.14-.25.44-.32.97-.47,1.45-.27.87-.48,1.78-.61,2.69-.05.37-.23.96.11,1.22.26.2.46.47.72.67.46.37.97.68,1.56.82.71.17,1.47.02,2.15-.2.97-.31,1.95-.76,2.8-1.32,3.04-2.01,5.95-4.19,8.84-6.4.74-.57,1.41-1.23,2.15-1.79.7-.53,1.42-1.06,2.15-1.55.22-.15,2.83-1.96,2.96-1.49.08.3-.04.66-.03.96.03.75.06,1.5.08,2.24.02.77-.03,1.57.09,2.33.15.93.72,1.73,1.23,2.5.37.55.99,1.09,1.51,1.5.7.55,1.45,1.08,2.25,1.46.88.41,1.73.81,2.64,1.13.77.27,1.49.65,2.28.88.84.24,1.66.53,2.46.86.48.2,1.14.62,1.67.57"/>
  <path class="cls-3" d="m51.23,32.07c.51-.5,1.21-.86,1.78-1.3.69-.55,1.59-.7,2.39-1.05.47-.21,1.32-.85,1.87-.61.56.25,1.19.59,1.7.92.29.19.59.24.92.3.42.09.73.29,1.12.46.49.22.91.49,1.37.77.38.23.84.31,1.26.48.79.32,1.38.9,2.15,1.23.38.16,1.03.21,1.26.59"/>
  <path class="cls-3" d="m43.75,35.38c.31.3.75.41,1.11.65.5.35,1,.61,1.58.83.68.26,1.4.38,2.07.66.86.36,1.7.75,2.54,1.14,1.94.89,4.07,1.33,6.15,1.76.17.03.82.22.92-.05.03-.07-.03-.16.08-.13.08.02.2-.03.28-.04.09-.01.15.03.23.03.23,0-.3-.63-.33-.7-.27-.77-.89-1.39-1.44-1.97-.76-.82-1.6-1.54-2.53-2.17-.73-.49-1.58-.86-2.23-1.47-.55-.51-.97-1.34-1.21-2.05"/>
  <path class="cls-3" d="m24.95,26.28c-.83,0-.84-1.1-1.01-1.71-.4-1.45-.73-2.8-.63-4.32.1-1.48.44-2.89.95-4.28.45-1.22,1.16-2.43,2.26-3.17,1.57-1.05,3.17-1.8,5.03-2.2,1.37-.29,2.62-.23,4-.12,1.28.1,2.34.79,3.51,1.26.57.23,1,.44,1.45.86.25.24.54.43.8.65.29.24.48.54.73.82.43.49.77.8.98,1.44.18.54.31,1.09.46,1.64.28,1.01.41,2.16.47,3.21.06,1.07.03,2.14-.18,3.19-.21,1.05-.53,2.06-.85,3.08-.16.51-.12.88.29,1.18.81.61,1.73,1,2.61,1.49.68.38,1.24.85,1.97,1.16.61.26,1.19.67,1.73,1.06.44.31.92.56,1.35.91.39.32.85.47,1.25.78"/>
  <path class="cls-3" d="m25.01,25.35c-.03-.17,0-.33.02-.5.08-.53.19-1.07.35-1.58.27-.84.65-1.66,1.03-2.46,1.1-2.3,2.32-4.51,3.59-6.71"/>
  <path class="cls-3" d="m25.31,23.2c-.15.08-.14-.04-.11-.15.31-1.22.66-2.43,1.11-3.61.47-1.23,1-2.42,1.66-3.56.18-.31.37-.65.61-.92,0,0,.29-.27.27-.14-.05.31-.34.63-.51.88-.74,1.14-1.34,2.37-1.94,3.58-.31.61-.71,1.33-.81,2.02-.08.55-.13,1.09-.34,1.61-.21.53-.23-.3-.23-.44-.07-2.43.39-4.79,1.22-7.07,0-.03.27-.65.27-.38,0,.16-.04.34-.07.5-.24,1.14-.48,2.28-.82,3.4-.13.43-.29.86-.39,1.3-.1.46-.17.93-.25,1.4-.06.35-.14.7-.2,1.06-.06.39-.1.78-.14,1.17,0,.03-.01.61-.09.63-.04.01-.17-.99-.18-1.05-.11-.89-.22-1.79-.24-2.69-.02-1.39.34-2.9,1.04-4.1.13-.22.28-.46.48-.62.07-.06.17-.05.11.06-.09.15-.18.3-.28.45-.39.61-.56,1.36-.76,2.04,0,.03-.56,2.09-.31,2.12.03,0,.06-.31.06-.33.02-.84.12-1.66.29-2.49.31-1.43.71-2.93,1.78-3.99.16-.15.3-.21.49-.32.27-.15.5-.37.78-.52.33-.17.63-.39.96-.57.33-.17.68-.27,1.04-.37.69-.2,1.33-.49,2.06-.5,1.59-.01,3.19-.22,4.77.03.6.1,1.19.25,1.73.53.81.43,1.38.98,1.9,1.73.88,1.27,1.33,2.7,1.79,4.16.09.29.14.57.2.87.04.22.15.44.23.65.21.58.39,1.11.44,1.73.04.57-.02,1.17-.1,1.74-.06.4-.13.85-.33,1.21-.07.13-.19.22-.26.34-.1.16-.1.38-.13.55"/>
  <path class="cls-3" d="m25.3,24.96c.17-.46.66-.87,1.04-1.16.59-.47,1.36-.8,2.03-1.12.88-.42,1.79-.78,2.66-1.24.78-.41,1.51-.9,2.3-1.3"/>
  <path class="cls-3" d="m25.01,24.6c2.59-2.56,5.03-5.54,8.26-7.33"/>
  <path class="cls-3" d="m26.07,24.01c1.14-1.56,2.18-3.19,3.38-4.71,1.03-1.31,2.17-2.67,3.7-3.42"/>
  <path class="cls-3" d="m25.6,24.47c1.47-2.29,3.04-4.58,4.88-6.59.56-.61,1.15-1.24,1.82-1.73.25-.18.51-.31.81-.37"/>
  <path class="cls-3" d="m25.86,23.94c1.36-2.26,2.79-4.51,4.47-6.54.61-.74,1.27-1.49,1.99-2.14.22-.2.48-.45.77-.5"/>
  <path class="cls-3" d="m25.3,24.73c.15-.6.4-1.15.66-1.71.41-.89.84-1.76,1.35-2.6.66-1.09,1.37-2.16,2.19-3.14.52-.63,1.07-1.26,1.76-1.7.16-.1.34-.22.53-.28.18-.06.12.09.13.2"/>
  <path class="cls-3" d="m25.83,22.99c1.05-2.34,2.36-4.63,4.04-6.59.86-1,1.98-2.17,3.37-2.21"/>
  <path class="cls-3" d="m27.3,19.17c.77-1.83,1.96-3.52,3.46-4.83.57-.49,1.21-.94,1.9-1.25.29-.13.58-.2.9-.2.37,0,.67.11,1.02.19"/>
  <path class="cls-3" d="m26.48,18.3c.69-1.33,1.5-2.67,2.71-3.59,1.61-1.22,3.58-1.66,5.57-1.62"/>
  <path class="cls-3" d="m26.3,17.42c.23-.97.7-1.95,1.38-2.69.76-.82,1.73-1.32,2.78-1.67,1.19-.4,2.51-.46,3.75-.39.74.04,1.5.11,2.22.29.48.12.78.36,1.15.66"/>
  <path class="cls-3" d="m26.68,15.65c.62-1.09,1.57-1.98,2.76-2.37.99-.32,2.04-.43,3.07-.47,1.06-.05,2.17-.16,3.22,0,.37.06.78.12,1.1.33.33.21.52.54.74.84"/>
  <path class="cls-3" d="m26.32,14.81c.15-.14.33-.24.49-.36.55-.38,1.11-.76,1.69-1.11.65-.39,1.33-.59,2.07-.74,1.75-.34,3.65-.31,5.42-.1.71.09,1.4.24,2.09.4.53.12,1.04.22,1.52.51.37.23.68.46.9.85.27.49.63.94.89,1.43.33.61.45,1.31.59,1.99.16.79.5,1.53.66,2.31.17.82.13,1.66.09,2.49-.06,1.46.1,2.92-.18,4.36"/>
  <path class="cls-3" d="m27.12,22.47c1.18-.88,2.59-1.47,3.9-2.13.93-.46,1.85-.93,2.75-1.44.89-.5,1.71-1.04,2.45-1.74"/>
  <path class="cls-3" d="m28.07,22.22c.53-.95,1.37-1.73,2.24-2.36,1.14-.83,2.28-1.66,3.47-2.42,1.36-.87,2.78-1.67,4.13-2.55"/>
  <path class="cls-3" d="m31.07,19.83c.63-.66,1.29-1.3,2-1.88.73-.6,1.54-1.11,2.32-1.63.97-.65,1.96-1.29,2.96-1.9"/>
  <path class="cls-3" d="m33.17,19.17c.83-.96,2.03-1.64,3.07-2.34.67-.46,1.35-.89,2.02-1.34.04-.03.59-.37.38-.31-.26.07-.5.14-.74.27-.91.47-1.76,1.03-2.68,1.48-.8.39-1.64.74-2.46,1.08-.41.17-.81.43-1.23.59-.25.1.23-.26.28-.3.88-.92,1.72-1.84,2.69-2.68.53-.46,1.07-.9,1.64-1.31.27-.19.54-.43.85-.56.2-.08-.29.28-.34.31-.8.53-1.56,1.12-2.35,1.65-1.36.92-2.7,1.82-3.93,2.9-.27.24-.54.47-.79.72-.02.02-.28.34-.15.16.45-.6.99-1.08,1.57-1.55,1.58-1.28,3.35-2.47,5.21-3.3.7-.31,1.49-.58,2.27-.58.28,0,.14.1-.02.16-.34.11-.66.25-.98.42-1.49.81-2.98,1.64-4.41,2.56-.5.32-.98.66-1.46,1-.27.19-.59.47-.93.52-.35.05.15-.55.2-.61,1.58-2.14,4.01-3.75,6.45-4.74.06-.02.41-.21.47-.17.1.06-.22.1-.33.14-.79.33-1.57.65-2.38.94-1.08.39-2.23.58-3.35.83-.08.02-1.4.2-1.18-.12.08-.11.31-.17.43-.2.6-.19,1.25-.27,1.87-.38,1.5-.27,3-.56,4.52-.56.41,0,.85-.01,1.26.05.03,0,.33.09.14.09-.59,0-1.21-.23-1.79-.31-1.51-.21-3.03-.32-4.54-.19-.71.06-2.78.49-2.08.43.71-.06,1.44-.42,2.12-.59,1.31-.33,2.68-.37,4.03-.26,1.09.09,2.18.28,3.18.72.55.24.91.54.94,1.18.01.34-.07.91-.26,1.22,0,.01-.08-.52-.09-.6-.08-.68-.11-1.36-.24-2.04-.08-.45-.33-.92-.36-1.37-.02-.23.25-.01.33.06.28.27.53.59.78.9,1.06,1.33,1.78,2.91,2.12,4.58.11.54.23,1.07.35,1.6.04.19.17.44.17.63,0,.9-.12-1.8-.29-2.69-.07-.37-.37-1.47-.31-1.09.07.45.06.9.06,1.35,0,1.25.04,2.51.06,3.76.02.77.03,1.54.1,2.31.05.6.07,1.19-.05,1.78-.02.09-.23.64-.16.72.02.02.05-.12.05-.12.02-.15.05-.3.08-.45.13-.81.34-1.62.52-2.42.19-.88.4-1.83.36-2.74-.01-.34-.04-.86-.26-1.14-.13-.16-.21-.34-.33-.51-.02-.03-.15-.2-.09-.08.03.07.03.14.02.21-.01.46-.09.92-.17,1.38-.21,1.22-.43,2.43-.73,3.63-.32,1.29-1.42,5.1-1.08,3.82.3-1.12.49-2.27.65-3.42.26-1.79.35-3.57.14-5.36-.12-1.05-.34-2.16-.88-3.09-.04-.07-.47-.65-.32-.25.1.25.16.52.24.78.21.76.45,1.51.61,2.28.37,1.79.51,3.6.52,5.42,0,.96,0,1.93-.13,2.88-.03.19-.03.16-.03,0,0-.6,0-1.19-.03-1.79-.07-1.93-.02-3.89-.27-5.8-.2-1.57-.71-2.98-1.47-4.35-.12-.21-.23-.5-.43-.65-.11-.08-.19-.05-.15.09.1.27.23.53.34.8.33.82.61,1.65.87,2.5.92,2.99,1.37,6.15,1.01,9.27-.09.76-.15-1.53-.2-2.3-.07-1.04-.1-2.08-.16-3.12-.07-1.08-.28-2.13-.53-3.18-.27-1.11-.73-2.4-1.55-3.24-.06-.06-.55-.48-.36-.15.48.82.85,1.73,1.13,2.63.61,1.94.97,3.96,1.28,5.96.11.72.18,1.43.18,2.15,0,.41.06.93-.07,1.33-.08.23-.19-.16-.2-.21-.16-.61-.21-1.25-.26-1.88-.15-2.03-.15-4.02-.67-6-.35-1.34-.82-2.79-1.84-3.78-.03-.03-.2-.21-.27-.16-.05.04.12.27.14.3.6,1,1.05,2.11,1.44,3.21.71,2,1.27,4.04,1.53,6.14.09.7.14,1.4.22,2.1.04.34.09.68.1,1.02,0,.09.03.33-.04.41-.06.08-.23-.42-.23-.42-.26-.8-.47-1.62-.7-2.43-.6-2.11-1.19-4.24-1.91-6.32-.37-1.07-.75-2.13-1.23-3.17-.02-.04-.07-.18-.05-.14.13.23.24.48.34.73.32.78.56,1.6.82,2.41.38,1.16.74,2.33,1.09,3.5.61,2.03,1.25,4.12,1.1,6.27,0,.01,0,.41-.09.21-.22-.52-.32-1.11-.41-1.67-.18-1.01-.27-2.03-.4-3.05-.15-1.13-.32-2.25-.48-3.38-.13-.91-.27-1.78-.56-2.65-.21-.66-.45-1.33-.89-1.87-.06-.07-.22-.24-.22-.15,0,.3.21.65.31.92.68,1.81,1.48,3.62,1.99,5.48.44,1.63.84,3.32.99,5,0,.05.11.75-.02.78-.1.02-.26-1.03-.27-1.12-.16-.76-.35-1.5-.54-2.25-.36-1.38-.65-2.78-.97-4.17-.37-1.59-.7-3.21-1.52-4.64-.04-.07-.19-.43-.32-.44-.08,0-.03.35-.02.38.1,1.36.53,2.7.88,4,.63,2.33,1.28,4.67,1.56,7.08.06.53.13,1.07.11,1.61,0,.04-.05.51-.07.48-.19-.39-.29-.86-.41-1.27-.27-.95-.48-1.91-.7-2.87-.54-2.3-1.03-4.61-1.44-6.93-.12-.7-.67-2.78-.5-2.09.05.19.12.38.2.56.28.7.57,1.4.83,2.11.74,2,1.28,4.09,1.43,6.23.05.71.11,1.41.17,2.12.04.42.15.95.05,1.37-.05.21-.18-.02-.22-.1-.39-.9-.59-1.9-.82-2.84-.6-2.5-1.17-4.99-2.02-7.43-.23-.65-.44-1.31-.71-1.93-.02-.04-.36-.81-.49-.66-.13.16.08.71.12.87.18.88.37,1.75.52,2.63.19,1.18.34,2.36.58,3.52.3,1.48.67,2.93,1.07,4.39.26.95.53,1.89.84,2.82.13.4.33.85.35,1.27.02.28-.1-.55-.16-.82-.21-1.01-.51-2-.77-3-.3-1.16-.6-2.32-.82-3.49-.26-1.42-.41-2.85-.6-4.28-.09-.66-.17-1.32-.31-1.97-.01-.07-.2-.71-.2-.64-.01.26.02.55.04.81.07.84.19,1.68.33,2.5.47,2.59,1.09,5.17,1.74,7.72.14.54.29,1.09.55,1.58.13.24.34.45.43.05.1-.45-.14-1-.26-1.41-.32-1.16-.64-2.32-.93-3.49-.53-2.17-1.12-4.33-1.27-6.57-.01-.18,0-.57-.15-.71-.19-.17-.28.55-.28.55-.07.95,0,1.9.06,2.85.1,1.43.24,2.86.52,4.26.34,1.74,1.18,3.33,1.63,5.04.07.25.05.16,0-.02-.15-.51-.29-1.02-.43-1.53-.73-2.66-1.79-5.23-2.44-7.92-.17-.69-.28-1.39-.32-2.1,0-.03.02-.57.03-.44.16,1.44.17,2.87.44,4.31.39,2.03.98,4.02,1.5,6.01.08.3.14.77.35,1.02.04.05-.07-.62-.08-.64-.45-2.12-1.12-4.17-1.65-6.26-.22-.85-.44-1.7-.61-2.56-.13-.7-.21-1.43-.43-2.12-.03-.08-.13-.29-.15-.21-.06.24,0,.58.03.81.07.81.26,1.6.42,2.39.25,1.27.49,2.54.77,3.81.31,1.42.68,2.85.84,4.3.02.14.02.31-.05.07-.17-.59-.28-1.19-.45-1.77-.62-2.2-1.52-4.31-1.94-6.57-.11-.57-.21-1.15-.26-1.73,0-.07.02-.89.03-.88.11.08.07.37.07.47.01.72.14,1.43.24,2.14.26,1.94.58,3.84,1.11,5.73.18.65.4,1.29.66,1.91.07.17.29.67.29.48.01-.24-.1-.51-.17-.74-.23-.74-.53-1.46-.82-2.18-.78-1.91-1.63-3.83-1.97-5.88-.07-.4-.09-.84-.24-1.22-.05-.13-.15-.25-.2-.06-.08.29-.02.65,0,.94.08.98.32,1.95.52,2.9.38,1.83.82,3.66,1.36,5.45.08.27.18.74.39.95.12.12-.1-.33-.18-.49-.65-1.31-.96-2.82-1.31-4.23-.33-1.33-.54-2.74-.67-4.11-.02-.22-.06-.49,0-.71.03-.09.07.24.07.26.03,1.09.12,2.16.25,3.25.14,1.18.2,2.36.26,3.54.01.21,0,.48.09.68.03.06,0-.17,0-.18-.24-.98-.33-1.98-.55-2.96-.23-1.06-.58-2.07-.62-3.17,0-.11-.05-.67.02-.27.15.85.2,1.71.33,2.56.18,1.21.3,2.43.52,3.63.07.38.15.76.24,1.14.05.2.06.55.21.71.12.13.4-.15.44-.25.09-.21-.19-.56-.3-.72-.43-.61-.74-1.32-.97-2.02-.07-.2-.12-.41-.17-.62,0-.03-.07-.39-.03-.18.11.55.08,1.1.26,1.64.32.95.72,1.94,1.26,2.79.1.15.74.88.93.43.04-.09-.02-.22-.08-.28-.27-.27-.61-.46-.87-.74-.63-.65-.94-1.32-1.19-2.17-.22-.73-.42-1.49-.26-2.25,0,0,.05-.16.04-.12-.09.26-.15.54-.2.81-.14.83-.1,1.65.14,2.45.23.79.55,1.79,1.18,2.36.41.37.85.49,1.37.6.4.08-.11-.28-.21-.36-.81-.64-1.5-1.48-1.87-2.45-.13-.33-.24-.68-.29-1.03,0-.02-.07-.47.06-.39.18.11.26.53.31.71.2.61.39,1.23.7,1.8.41.77,1,1.51,1.69,2.05.25.2.5.43.8.56.3.13.61.2.92.26.67.13,1.35.2,2.02.29.23.03.92.11.7.04-.11-.04-.25-.01-.37-.02-.41-.04-.81-.13-1.21-.23-.86-.22-1.7-.53-2.46-1.02-.23-.15-.84-.68-.61-.53.37.24.69.59,1.04.86.76.59,1.5,1.2,2.34,1.69.66.39,1.44.54,2.19.63.25.03.51.04.76.07.09,0,.27.06.35,0,.07-.04-.16-.03-.24-.05-.32-.06-.63-.14-.94-.23-1.26-.38-2.48-.95-3.6-1.65-.57-.36-1.19-.68-1.74-1.07-.17-.12.17.2.21.25.21.25.49.44.75.64.41.32.83.61,1.26.89.87.58,1.86,1.12,2.86,1.42.33.1.7.15,1.05.16.22,0,.59.02.79-.12.1-.07-.03-.12-.09-.14-.28-.06-.55-.11-.83-.19-.9-.25-1.8-.48-2.69-.75-.9-.26-1.73-.65-2.57-1.05-.25-.12-.51-.22-.75-.35-.08-.05-.3-.21-.25-.13.03.04.14.08.18.1.32.21.64.43.98.61,1.19.61,2.48,1.05,3.76,1.43.47.14,1.17.43,1.68.3.02,0-.68-.43-.75-.47-.98-.47-1.94-.99-2.86-1.55-1.08-.65-2.12-1.41-2.81-2.49-.02-.04-.5-.74-.44-.76.17-.06.62.32.74.4,1.46.93,2.76,2.08,4.22,3,.91.58,1.87,1.09,2.77,1.7.33.23-.55-.6-.86-.85-1.14-.95-2.39-1.76-3.46-2.8-.42-.4-.81-.84-1.18-1.29-.01-.02-.39-.46-.23-.47.14-.01.34.27.42.34.49.46.98.92,1.46,1.39,1.15,1.13,2.28,2.3,3.55,3.3.11.09,1.72,1.25,1.83.97.03-.08-.2-.33-.24-.37-.37-.43-.87-.77-1.3-1.14-1.07-.91-1.95-1.97-2.7-3.16-.13-.21-.38-.52-.39-.78,0-.14.06-.13.13-.06.57.51,1.1,1.05,1.64,1.59,1.2,1.2,2.59,2.19,4.03,3.08.33.2.72.49,1.11.56.21.04-.13-.23-.14-.24-1.31-1.02-2.59-2.14-3.69-3.39-.8-.91-1.53-1.86-1.94-3.01-.11-.3.51.37.54.4.68.83,1.52,1.56,2.3,2.29,1.47,1.38,6.27,5.08,4.76,3.74-1.28-1.14-2.65-2.18-3.9-3.36-.57-.54-1.13-1.08-1.72-1.59-.34-.29-.68-.62-1.06-.86-.38-.24.26.23.33.28.93.7,1.83,1.42,2.78,2.09,1.13.81,2.18,1.72,3.33,2.49.92.62,1.85,1.2,2.84,1.71.02,0,.56.31.5.33-.13.06-.61-.25-.72-.29-1.24-.58-2.37-1.44-3.44-2.27-.49-.38-.98-.78-1.46-1.17-.09-.07-.68-.46-.64-.6.01-.05.98.49,1.05.53.4.26.82.49,1.22.74.63.4,1.22.86,1.82,1.31.59.44,1.18.88,1.73,1.38.57.52,1.12,1.05,1.73,1.51,0,0,.4.33.45.22.05-.11-.14-.34-.19-.42-.5-.79-1.24-1.38-1.93-2-.41-.37-.82-.73-1.24-1.07-.11-.09-.22-.17-.32-.26-.03-.03-.1-.13-.1-.09,0,.04.19.16.21.18.27.26.54.5.8.77.97.99,1.85,2.05,2.71,3.13.66.83,1.31,1.7,2.07,2.46"/>
  <path class="cls-3" d="m30.45,12.18c.86-.48,1.82-.98,2.82-1.07.57-.05,1.17.08,1.73.15.54.07,1.04.12,1.5.43.24.16.66.45.7.77"/>
  <path class="cls-3" d="m24.73,25.73c.89-.8,1.76-1.61,2.69-2.36.65-.52,1.31-1.03,1.96-1.55"/>
  <path class="cls-3" d="m34.85,27.32c.14.19.2.26.43.42,1.25.88,2.62,1.59,3.93,2.38"/>
  <path class="cls-3" d="m38.97,26.53c.97,1.02,2.16,1.79,3.31,2.59.46.32.88.68,1.34.98.85.57,1.58,1.28,2.45,1.81"/>
  <path class="cls-3" d="m40.8,32.45c1.11.57,2.35.89,3.49,1.42.74.34,1.44.75,2.15,1.14,1.42.78,2.82,1.54,4.32,2.13.58.23,1.17.44,1.76.66.3.11.64.23.92.4.36.21.74.31,1.15.38"/>
  <path class="cls-3" d="m40.75,33.2c.47.36.9.75,1.4,1.07.35.22.72.41,1.09.59.93.47,1.79,1.1,2.74,1.54.36.16.73.3,1.11.41.03,0,.39.13.39.08,0-.09-.62-.24-.7-.27-.41-.13-.83-.17-1.23-.35-.5-.22-.99-.47-1.49-.7-.94-.44-1.73-1.12-2.57-1.72-.31-.22-.67-.42-.94-.7-.16-.16-.03-.15.11-.07.84.47,1.62,1.07,2.44,1.58,1.06.66,2.17,1.09,3.39,1.36,1.21.26,2.29.87,3.46,1.23.03,0,.42.09.29,0-.18-.11-.39-.14-.58-.23-2.11-1.04-4.29-1.99-6.24-3.31-.22-.15-.98-.57-.84-.94.05-.15.59.19.67.22.95.46,1.81,1.08,2.73,1.61,1,.58,2.16,1.1,3.31,1.27.23.03.5.1.73.07.04,0,.23-.04.15-.11-.1-.1-.24-.14-.36-.21-.46-.28-.92-.55-1.38-.84-1.34-.84-2.64-1.71-3.95-2.6-.35-.24-.68-.52-1.05-.73-.12-.07-.13-.09,0-.04.58.22,1.11.49,1.62.84,1.38.95,2.66,2.05,4.06,2.98.56.37,1.13.69,1.72,1,.38.2.76.43,1.18.53.18.04,0-.05-.05-.08-.21-.12-.42-.21-.64-.3-1.56-.65-3.12-1.3-4.66-2.01-1.25-.57-2.69-1.18-3.67-2.19-.32-.33-.11-.57.3-.45.49.15.96.41,1.42.62.86.39,1.69.86,2.51,1.34,1.51.88,3.01,1.78,4.55,2.61.37.2.75.4,1.14.57.04.02.37.15.19,0-.12-.1-.24-.19-.37-.28-.46-.3-.87-.68-1.31-1.03-1.51-1.2-3.1-2.3-4.63-3.48-.32-.25-.63-.51-.95-.75-.03-.03-.25-.18-.08-.09.87.42,1.7.96,2.49,1.52,1.52,1.07,2.99,2.21,4.49,3.31.64.47,1.26.96,1.93,1.39,0,0,.41.23.37.16-.05-.09-.18-.16-.26-.22-.22-.18-.49-.32-.73-.48-1.37-.88-2.82-1.6-4.25-2.37-.61-.33-1.21-.67-1.78-1.05-.43-.29-.93-.59-1.3-.96-.02-.02-.3-.33-.13-.33.16,0,.31.1.44.17,1.09.57,2.06,1.32,3.08,2,1.25.83,2.57,1.54,3.94,2.14.39.17.78.35,1.15.54.25.13.55.25.75.45.04.04.31.44.19.35-.15-.11-.28-.23-.41-.36-.48-.47-1.02-.87-1.51-1.33-.31-.3-.72-.62-.86-1.04-.07-.2.28.12.32.16.36.36.76.68,1.16,1,.71.59,1.37,1.24,1.98,1.94.19.21.38.43.53.67.11.19.21.39.34.57.02.02.19.4.1.36-.49-.18-1-.33-1.51-.47-2.12-.6-4.26-1.33-6.2-2.4-.18-.1-.38-.21-.54-.35-.1-.09-.05-.13.07-.1.6.18,1.19.49,1.76.74,1.15.49,2.3,1.03,3.48,1.44.48.17.95.38,1.44.55.2.07.42.12.62.21.17.08-.21.03-.25.02-.78-.19-1.58-.27-2.37-.43-1.07-.22-2.15-.52-3.2-.84-.35-.11-.71-.22-1.03-.4-.09-.05-.36-.16-.38-.29-.02-.22.65-.09.74-.07,1.17.3,2.31.72,3.4,1.21.94.41,1.87.81,2.84,1.15.12.04.84.19.49-.11-.16-.13-.34-.24-.52-.35-.5-.35-.97-.73-1.46-1.09-.33-.24-.67-.46-1-.68-.32-.22-.63-.47-.98-.64-.09-.04-.36-.13-.26-.13s.23.09.32.12c.91.33,1.79.68,2.68,1.08.84.37,1.69.76,2.53,1.13.02,0,.25.11.2.11-.1,0-.21-.04-.31-.04-.61-.03-1.19-.25-1.75-.48-.93-.38-1.74-.92-2.54-1.52-.6-.44-1.17-.9-1.67-1.46-.1-.11-.19-.23-.24-.38-.03-.11-.04-.21-.11-.3-.19-.24-.33-.5-.52-.74-.22-.27-.52-.47-.68-.79-.05-.1-.09-.27,0-.37.06-.06-.09-.11-.16-.14-.25-.1-.42-.28-.62-.46-.12-.11-.26-.19-.39-.29-.02-.01-.15-.13-.06-.13.16,0,.28.15.4.23.25.16.5.33.76.48,1.1.65,2.32,1.19,3.26,2.06.61.56,1.3,1.04,1.93,1.58.76.65,1.36,1.43,2.01,2.18.19.22.35.43.55.64.06.06.1.14.08.23,0,0-.08-.13-.09-.15-.09-.09-.2-.16-.3-.24-.29-.23-.52-.54-.76-.81-1.35-1.49-2.64-3.1-4.21-4.36-1.16-.93-2.26-1.99-3.6-2.66-.04-.02-.52-.3-.28-.16.19.11.33.3.52.42.55.35,1.04.79,1.55,1.19.87.68,1.77,1.32,2.65,1.99,1.16.89,2.38,1.81,3.31,2.95.32.4.68.77,1.03,1.15.21.22.36.49.59.69.06.06,0,.04-.04.04-.04,0-.02.09-.02.12,0,.13.08.16.16.24.11.12.05.1-.07.11-.39.04-.71.16-1.05.34"/>
  <path class="cls-3" d="m57.14,29.34c.17.26.3.57.44.85.1.2.18.4.28.59.12.23.23.47.36.7.12.23.21.47.33.71.24.47.6.86,1,1.19.32.26.79.36,1.18.48.2.06.4.1.6.13.22.04.43.12.64.16.47.11.94.2,1.41.3.21.04.41.12.62.18.22.07.45.11.67.19.43.16.89.25,1.31.43.24.11.48.24.72.36.08.04.17.07.26.07.05,0,.36.01.37-.08.02-.23-.11-.44-.16-.67-.08-.37-.21-.76-.24-1.14"/>
  <path class="cls-3" d="m58.48,30.49c.06.08.13.12.21.18.25.16.49.32.75.47.38.22.76.43,1.14.65.69.39,1.38.77,2.07,1.16.6.34,1.21.64,1.85.89.32.13.66.19.98.33.27.12.56.15.82.29.08.04.17.07.24.12.03.03.05.06,0,.01-.06-.06-.14-.12-.22-.16-.31-.17-.66-.29-.98-.44-.59-.27-1.19-.53-1.79-.8-.64-.29-1.27-.61-1.9-.93-.48-.24-.97-.47-1.44-.72-.14-.07-.3-.14-.42-.25-.09-.07-.16-.16-.24-.24-.09-.09,0-.06.07-.04.18.05.35.11.51.2.95.54,1.88,1.2,2.94,1.49.24.07.53.08.76.19.1.05,0,.04-.06.02-.72-.37-1.42-.78-2.13-1.17-.46-.25-.91-.49-1.38-.72-.35-.17-.71-.32-1.04-.51-.2-.11-.4-.22-.59-.33-.11-.07-.21-.15-.33-.19-.13-.05-.13.12-.1.21.3.91.86,1.72,1.56,2.37.43.4.92.77,1.5.94.49.15,1.02.12,1.52.18.11.01.29.06.39.03.03,0-.05-.06-.06-.06-.2-.16-.44-.28-.65-.43-.51-.35-1.04-.66-1.58-.96-.35-.2-.7-.37-1.06-.55-.01,0-.37-.23-.36-.24.05-.03.23.08.27.11.34.22.66.47,1,.7.94.65,1.95,1.34,3.08,1.61.33.08.67.13,1,.23.2.06.39.13.59.18.11.03.24.06.33.12.05.03.06.09.09.14.04.06.08.09.15.11.08.03.14.08.2.14.12.1.21.05.34.09.1.03.23.08.33.13.07.04.1.08.14.14,0,0,.08.1.08.08.02-.12-.05-.25-.08-.36"/>
  <path class="cls-2" d="m24.48,33.48c-.17-.82,1.07-1.1,1.6-1.56.91-.79,1.43-1.89,2.36-2.65,1.68-1.37,3.26-2.88,4.69-4.53.98-1.13,2.07-2.42,3.35-3.24.1-.06-.21,1.73-.36,2.03-.7,1.35-1.47,2.62-2.2,3.94-.48.88.04,1.97-.45,2.85-.53.94-.82,2.19-.82,3.27"/>
  <path class="cls-2" d="m27.63,30.68c.34.08.68.15,1.03.23.6.15,1.1.33,1.64.61.21.11.5.2.67.37.05.05.05.07.11.06.19-.02.58.22.68.04.08-.15.11-.32.19-.46.17-.32.31-.68.44-1.02.31-.85.63-1.7.94-2.55.2-.54.5-1.04.72-1.58.44-1.07,1.11-1.93,1.83-2.82.12-.15.22-.31.34-.46.07-.09.19-.16.24-.26.15-.26-.1-.03-.19.05-.33.31-.78.48-1.14.74-.84.62-1.56,1.47-2.2,2.29-.75.96-1.37,2.05-2.4,2.73-.66.44-1.47.81-1.96,1.47-.13.17-.22.42.09.29.41-.17.64.18.97.4.29.19.58.28.85.02.38-.37.61-.94.85-1.41.33-.65.68-1.28,1.08-1.88.26-.39.53-.78.82-1.14.03-.03.27-.32.16-.11-.09.16-.22.3-.33.45-.31.45-.46.98-.61,1.51-.28.95-.5,1.91-.84,2.84-.02.06.09-.04.09-.04.12-.15.13-.38.19-.56.36-1.13.57-2.31,1.02-3.41.04-.1.27-.55.12-.2-.09.19-.2.35-.33.51-.24.28-.43.59-.64.89-.21.3-.44.58-.64.89-.22.35-.59.69-1.01.74-.31.04-.55.01-.85-.05-.1-.02-.02.07.02.1.15.13.28.17.44.26.51.3.95.8,1.36,1.23.24.26.41.57.65.82.08.09.02-.04,0-.07-.1-.17-.19-.34-.27-.52-.34-.75-.61-1.55-.77-2.36-.03-.16-.11-.44,0-.6.05-.08.17-.02.24-.02.16,0,.36-.13.37.11,0,.13-.02.27-.02.4.01.36.07.73.12,1.08.09.54.21,1.07.32,1.6.04.2.07.54.24.69.13.11.08-.29.07-.32-.14-.39-.3-.69-.63-.95-.36-.29-.75-.59-.93-1.04-.16-.39-.15-.81-.27-1.21-.04-.13-.11-.37-.24-.12-.09.18.21.4.35.42.32.03.57-.16.82-.34.53-.4.96-.94,1.36-1.47.65-.87,1.34-1.77,1.9-2.71.27-.46.42-.97.68-1.43.32-.58.82-1.04,1.14-1.62.05-.09.13-.24.24-.27.11-.02.09.12.11.19.03.13.01.29.01.42,0,.34-.04.64-.11.97-.2.93-.4,1.87-.68,2.78-.34,1.08-.96,2.06-1.28,3.14-.13.45-.29.9-.41,1.35-.12.44-.17.93-.37,1.34-.05.11-.12.21-.16.34,0,.02-.07.22-.07.22-.05-.04.01-.34,0-.41,0-.23-.03-.46-.02-.68.02-.67.2-1.36.36-2,.27-1.06.68-2.07,1.14-3.07.15-.32.42-.72.43-1.09,0-.12-.12-.04-.11-.13.12-.6.36-1.18.48-1.78"/>
  <path class="cls-2" d="m34.23,28.76c-.17.29-.31.6-.41.92-.11.4.09.92.19,1.3.17.67.31,1.39.63,2.01.3.57,1,.79,1.48,1.16.05.04-.13-.06-.18-.1-.12-.1-.22-.24-.3-.38-.71-1.15-1.32-2.41-1.76-3.69-.2-.58-.24-1.26-.08-1.86.08-.31.2-.62.37-.89.09-.13.19-.24.27-.37"/>
  <path class="cls-5" d="m67.49,34.96c0-.33.01-.67.01-1C67.5,15.2,52.5,0,34,0S.5,15.2.5,33.96c0,.33,0,.67.01,1C1.04,16.67,15.83,2,34,2s32.96,14.67,33.49,32.96Z"/>
  <path class="cls-1" d="m58.5,41.5l-24-11-.5,1.5.06.05c8.07,6.64,12.61,10.38,24.44,9.45Z"/>
</svg>