<svg width="197" height="48" viewBox="0 0 197 48" fill="none" xmlns="http://www.w3.org/2000/svg">
<circle cx="34.1481" cy="26.5" r="11.5" fill="#153D5D"/>
<circle cx="34.1481" cy="26.5" r="11.5" fill="#153D5D"/>
<path d="M1 41.4413C1.12777 41.1933 1.3471 40.9705 1.5561 40.788C1.77971 40.5926 2.04963 40.4721 2.29109 40.3019C2.75315 39.9761 3.19572 39.6061 3.63273 39.248C4.81164 38.282 5.96113 37.2688 7.09767 36.2536C7.89462 35.5418 8.70339 34.8491 9.41541 34.0487C9.64598 33.7894 9.91252 33.5445 10.2087 33.3603C10.3607 33.2659 10.2301 33.4589 10.2048 33.5042C9.95749 33.948 9.88276 34.4704 9.73429 34.9509C9.46424 35.8248 9.25272 36.7312 9.12764 37.638C9.07705 38.0048 8.89836 38.596 9.24041 38.8591C9.49927 39.0582 9.69877 39.325 9.95595 39.5319C10.4201 39.9052 10.9228 40.216 11.5115 40.3563C12.2194 40.5251 12.9819 40.3748 13.662 40.158C14.6303 39.8493 15.6133 39.4003 16.462 38.8397C19.5059 36.8287 22.4071 34.6501 25.2993 32.4348C26.0373 31.8695 26.7046 31.2086 27.4459 30.6459C28.1469 30.1138 28.8634 29.5873 29.5926 29.0943C29.8117 28.9461 32.4192 27.1378 32.55 27.6049C32.633 27.9014 32.5079 28.2605 32.5189 28.5654C32.5459 29.3123 32.5799 30.0606 32.6025 30.8073C32.6258 31.5774 32.5752 32.3749 32.6958 33.1387C32.8431 34.0715 33.4118 34.8729 33.9266 35.6392C34.2969 36.1902 34.9207 36.7279 35.4394 37.1344C36.1385 37.6824 36.887 38.2181 37.693 38.5947C38.5692 39.0041 39.4207 39.4072 40.3354 39.7263C41.1043 39.9945 41.8274 40.379 42.6123 40.6033C43.452 40.8432 44.2675 41.1312 45.0759 41.4627C45.555 41.6591 46.2182 42.0801 46.7442 42.0363" stroke="#153D5D" stroke-linecap="round"/>
<path d="M51.7299 38.0698C52.2437 37.5679 52.9357 37.2142 53.5057 36.7668C54.2002 36.2216 55.0961 36.0634 55.891 35.716C56.3613 35.5104 57.2127 34.8629 57.7561 35.1013C58.3158 35.3467 58.9459 35.6903 59.4532 36.026C59.7415 36.2168 60.0399 36.2611 60.3726 36.3307C60.7934 36.4188 61.1072 36.6188 61.4917 36.7931C61.9841 37.0163 62.3983 37.2837 62.8577 37.5654C63.2402 37.7999 63.7005 37.8775 64.1134 38.0435C64.9025 38.3607 65.4984 38.9456 66.2623 39.2782C66.6392 39.4422 67.294 39.4845 67.5233 39.8666" stroke="#153D5D" stroke-linecap="round"/>
<path d="M44.2521 41.3828C44.5596 41.6815 45.0054 41.7928 45.3585 42.035C45.8625 42.3807 46.3611 42.6469 46.9371 42.8657C47.6154 43.1232 48.3349 43.2427 49.0057 43.5211C49.863 43.877 50.7009 44.2735 51.5431 44.6616C53.4841 45.5563 55.6141 45.9914 57.6936 46.4187C57.8613 46.4532 58.5147 46.6366 58.6135 46.37C58.6411 46.2953 58.5824 46.2129 58.6946 46.2435C58.7754 46.2655 58.8917 46.2129 58.972 46.2029C59.0604 46.1919 59.1224 46.2305 59.204 46.2305C59.438 46.2305 58.9005 45.6026 58.8763 45.5329C58.6079 44.7614 57.9821 44.1457 57.4389 43.56C56.6741 42.7356 55.8369 42.0166 54.9047 41.3893C54.1762 40.899 53.3229 40.5265 52.6755 39.9243C52.1251 39.4122 51.7075 38.581 51.4652 37.8784" stroke="#153D5D" stroke-linecap="round"/>
<path d="M25.453 32.2797C24.6184 32.2797 24.6129 31.1825 24.4451 30.5721C24.045 29.1174 23.7178 27.7755 23.8168 26.2503C23.9128 24.7721 24.253 23.3602 24.7673 21.9698C25.2203 20.745 25.9264 19.538 27.0294 18.7963C28.598 17.7416 30.1962 16.9982 32.0578 16.5985C33.4301 16.3039 34.6787 16.369 36.0598 16.4789C37.3413 16.5808 38.4018 17.2693 39.5693 17.74C40.136 17.9684 40.5691 18.1776 41.0192 18.5961C41.2724 18.8316 41.5582 19.0212 41.8223 19.2427C42.1105 19.4844 42.3031 19.7842 42.5495 20.062C42.9816 20.549 43.3203 20.8636 43.5322 21.5049C43.7098 22.0425 43.8391 22.5998 43.9902 23.1458C44.2701 24.1579 44.3969 25.3078 44.4573 26.3561C44.519 27.4255 44.4856 28.4953 44.2801 29.5457C44.0738 30.6003 43.7472 31.6062 43.4309 32.6295C43.2722 33.1431 43.3142 33.5056 43.7232 33.8124C44.5321 34.419 45.4562 34.815 46.3352 35.299C47.0181 35.6751 47.5762 36.1478 48.3028 36.4566C48.9134 36.7161 49.4883 37.1296 50.0288 37.5129C50.4729 37.8278 50.9518 38.0729 51.3751 38.4196C51.7699 38.743 52.2229 38.8944 52.627 39.1975" stroke="#153D5D" stroke-linecap="round"/>
<path d="M25.5099 31.3488C25.4817 31.1795 25.5019 31.0235 25.5279 30.8525C25.6089 30.3193 25.7169 29.7874 25.8827 29.2736C26.1553 28.4292 26.5344 27.6118 26.9165 26.8126C28.0153 24.5148 29.2352 22.3066 30.509 20.1009" stroke="#153D5D" stroke-linecap="round"/>
<path d="M25.8108 29.1964C25.6647 29.2776 25.6724 29.1553 25.7002 29.0447C26.0071 27.8231 26.359 26.6102 26.8111 25.4343C27.2831 24.2069 27.8112 23.013 28.4749 21.8752C28.6569 21.5633 28.8432 21.2255 29.0895 20.9572C29.0981 20.9479 29.3757 20.6833 29.3557 20.8158C29.3092 21.1225 29.0112 21.4501 28.8491 21.6991C28.109 22.8358 27.5129 24.0688 26.9088 25.2813C26.6027 25.8959 26.2009 26.6064 26.0988 27.2986C26.0179 27.8473 25.9679 28.3904 25.7568 28.911C25.5439 29.4361 25.5271 28.6099 25.5228 28.4674C25.4499 26.0402 25.9131 23.6762 26.7417 21.3995C26.7516 21.3723 27.0102 20.7486 27.0143 21.0241C27.0166 21.1828 26.9751 21.3645 26.9423 21.5191C26.6999 22.6617 26.4628 23.7958 26.1271 24.9187C25.9977 25.3513 25.8387 25.7745 25.7414 26.216C25.6394 26.6789 25.5715 27.1465 25.4868 27.6124C25.4224 27.9663 25.3419 28.3165 25.2836 28.6718C25.22 29.0599 25.1826 29.4506 25.1448 29.8419C25.1418 29.8721 25.1324 30.4489 25.0573 30.4693C25.0194 30.4797 24.8831 29.4813 24.8748 29.415C24.7625 28.5225 24.6518 27.6232 24.6356 26.7226C24.6106 25.3354 24.9774 23.8275 25.6796 22.6274C25.807 22.4097 25.9596 22.1695 26.1554 22.0038C26.2269 21.9433 26.3291 21.9579 26.2685 22.0604C26.1787 22.2124 26.0854 22.364 25.9908 22.513C25.6034 23.123 25.4266 23.8686 25.2283 24.5561C25.2184 24.5907 24.6699 26.6434 24.9185 26.6789C24.9518 26.6837 24.9757 26.3682 24.9763 26.3459C24.9994 25.5038 25.0945 24.6826 25.2708 23.8579C25.5768 22.4262 25.9771 20.9306 27.0477 19.8694C27.2034 19.7152 27.3494 19.6556 27.5337 19.5531C27.8075 19.4011 28.0383 19.1819 28.3142 19.0363C28.6441 18.8622 28.9458 18.6422 29.2759 18.4692C29.6093 18.2946 29.9552 18.2025 30.3149 18.1002C31.0009 17.9052 31.6447 17.606 32.3708 17.6013C33.958 17.5912 35.5628 17.3786 37.141 17.6296C37.7442 17.7256 38.3329 17.8785 38.8742 18.1645C39.6879 18.5944 40.2533 19.1424 40.7733 19.8926C41.6543 21.1635 42.1042 22.5916 42.567 24.0521C42.6574 24.3376 42.7099 24.6237 42.7637 24.9174C42.8044 25.1397 42.917 25.3571 42.9938 25.5693C43.2026 26.1455 43.3874 26.6744 43.4362 27.2961C43.4806 27.8629 43.4126 28.4711 43.3359 29.0319C43.2808 29.4343 43.2014 29.8795 43.0067 30.2418C42.9355 30.3743 42.8193 30.4624 42.7418 30.5864C42.6437 30.7433 42.6441 30.9634 42.6133 31.1405" stroke="#153D5D" stroke-linecap="round"/>
<path d="M25.7959 30.962C25.9632 30.4972 26.4587 30.0959 26.8358 29.7982C27.4251 29.333 28.1929 29.0008 28.8671 28.6828C29.7508 28.2661 30.6574 27.899 31.5224 27.4435C32.3029 27.0325 33.0366 26.5436 33.8215 26.1415" stroke="#153D5D" stroke-linecap="round"/>
<path d="M25.5138 30.6031C28.1081 28.0412 30.5413 25.0636 33.7702 23.2698" stroke="#153D5D" stroke-linecap="round"/>
<path d="M26.5651 30.0133C27.7089 28.4524 28.743 26.8232 29.944 25.3011C30.9787 23.9897 32.116 22.6286 33.6419 21.8852" stroke="#153D5D" stroke-linecap="round"/>
<path d="M26.1035 30.4749C27.5717 28.1842 29.1414 25.8936 30.9838 23.8823C31.5414 23.2736 32.1296 22.6389 32.8043 22.1558C33.0588 21.9736 33.3125 21.8433 33.6163 21.7826" stroke="#153D5D" stroke-linecap="round"/>
<path d="M26.36 29.9364C27.7198 27.6811 29.1496 25.428 30.83 23.3951C31.4438 22.6527 32.1028 21.9029 32.8158 21.2527C33.0337 21.0539 33.2957 20.8061 33.5907 20.757" stroke="#153D5D" stroke-linecap="round"/>
<path d="M25.7959 30.7313C25.9466 30.1338 26.1992 29.5857 26.454 29.0247C26.8596 28.1317 27.2922 27.2604 27.8016 26.4222C28.463 25.3338 29.1722 24.2593 29.9868 23.2783C30.5061 22.6529 31.0544 22.0168 31.7489 21.5803C31.9126 21.4774 32.0909 21.363 32.2773 21.304C32.4545 21.2479 32.3991 21.3912 32.4112 21.5005" stroke="#153D5D" stroke-linecap="round"/>
<path d="M26.3344 28.9877C27.3806 26.6502 28.6974 24.3536 30.3699 22.4008C31.2259 21.4014 32.3512 20.2295 33.7446 20.1929" stroke="#153D5D" stroke-linecap="round"/>
<path d="M27.7958 25.1672C28.5662 23.3346 29.7581 21.6423 31.2573 20.3353C31.8224 19.8427 32.4698 19.3916 33.1547 19.0818C33.4424 18.9516 33.7376 18.8822 34.0536 18.8795C34.4268 18.8763 34.7212 18.9942 35.0778 19.0647" stroke="#153D5D" stroke-linecap="round"/>
<path d="M26.9753 24.2954C27.6644 22.9693 28.4779 21.6245 29.6862 20.7071C31.2966 19.4842 33.2647 19.044 35.2573 19.0903" stroke="#153D5D" stroke-linecap="round"/>
<path d="M26.7958 23.4236C27.0224 22.4561 27.4919 21.4687 28.1733 20.7356C28.9359 19.9151 29.9071 19.4163 30.9581 19.0647C32.1455 18.6674 33.4674 18.6028 34.7103 18.6772C35.4453 18.7212 36.2143 18.7869 36.9296 18.9706C37.4111 19.0943 37.7049 19.3304 38.0778 19.6288" stroke="#153D5D" stroke-linecap="round"/>
<path d="M27.1804 21.6544C27.7983 20.5612 28.752 19.6787 29.9454 19.2855C30.9314 18.9606 31.9866 18.8601 33.018 18.8139C34.0787 18.7665 35.1844 18.6532 36.2388 18.8168C36.607 18.8739 37.0167 18.9397 37.3371 19.1444C37.6646 19.3538 37.8584 19.6806 38.0778 19.9877" stroke="#153D5D" stroke-linecap="round"/>
<path d="M26.8215 20.8082C26.9697 20.6717 27.1468 20.5665 27.3116 20.4521C27.8648 20.0681 28.4174 19.6877 28.9967 19.3439C29.6461 18.9585 30.3254 18.7518 31.0637 18.6088C32.8148 18.2696 34.7154 18.2953 36.4824 18.512C37.1885 18.5985 37.8828 18.7492 38.575 18.9094C39.1096 19.0331 39.6194 19.1329 40.0921 19.4236C40.4659 19.6535 40.7757 19.8866 40.9895 20.2726C41.2627 20.7657 41.6169 21.208 41.8827 21.7057C42.2095 22.3175 42.3364 23.0186 42.4753 23.6914C42.6375 24.4777 42.9738 25.2181 43.1377 26.0048C43.3082 26.8234 43.2682 27.6692 43.2317 28.4991C43.1676 29.9564 43.3345 31.4199 43.0522 32.8594" stroke="#153D5D" stroke-linecap="round"/>
<path d="M27.6163 28.4749C28.7939 27.5906 30.2032 27.0052 31.5137 26.3495C32.4421 25.885 33.3628 25.4147 34.2687 24.9079C35.1593 24.4097 35.9753 23.8656 36.7188 23.1672" stroke="#153D5D" stroke-linecap="round"/>
<path d="M28.5651 28.2185C29.0981 27.2708 29.9369 26.4926 30.8086 25.8581C31.9483 25.0286 33.0889 24.1967 34.2773 23.4379C35.6422 22.5663 37.057 21.7724 38.4112 20.8852" stroke="#153D5D" stroke-linecap="round"/>
<path d="M31.5651 25.8338C32.1953 25.1775 32.8567 24.5319 33.5608 23.9549C34.2897 23.3576 35.1018 22.8467 35.8841 22.3225C36.8591 21.6692 37.8438 21.0322 38.8471 20.4236" stroke="#153D5D" stroke-linecap="round"/>
<path d="M33.6676 25.1672C34.498 24.2078 35.6968 23.5315 36.7331 22.8225C37.4004 22.3659 38.0842 21.9363 38.7545 21.4849C38.7988 21.455 39.3457 21.1182 39.1377 21.1786C38.8803 21.2533 38.6333 21.3215 38.3941 21.4464C37.4872 21.92 36.6306 22.4738 35.7103 22.9279C34.9104 23.3226 34.0732 23.6632 33.2517 24.0105C32.8381 24.1853 32.4415 24.4373 32.0266 24.5974C31.7791 24.6929 32.2613 24.34 32.3029 24.2968C33.1876 23.3788 34.0231 22.4583 34.9881 21.6159C35.5179 21.1535 36.057 20.7165 36.6306 20.3097C36.8978 20.1201 37.1716 19.8794 37.4796 19.7541C37.6823 19.6716 37.1938 20.032 37.1405 20.0675C36.3448 20.598 35.584 21.1826 34.7901 21.7171C33.4297 22.6329 32.0902 23.5322 30.8599 24.6202C30.5923 24.8569 30.3193 25.091 30.0665 25.3438C30.0492 25.3611 29.7852 25.6827 29.9183 25.5062C30.3682 24.9096 30.9071 24.4282 31.4881 23.9564C33.0661 22.675 34.8379 21.4828 36.6989 20.6544C37.3977 20.3433 38.1895 20.076 38.9667 20.076C39.2496 20.076 39.1096 20.1796 38.9454 20.2327C38.6051 20.3428 38.2807 20.4857 37.9667 20.6572C36.4766 21.4712 34.9868 22.2996 33.5565 23.2156C33.0584 23.5347 32.5792 23.8803 32.0921 24.2156C31.8218 24.4017 31.5053 24.6882 31.1634 24.7341C30.8174 24.7807 31.3137 24.1885 31.3642 24.1202C32.9478 21.979 35.3752 20.3735 37.8172 19.3795C37.8778 19.3548 38.2227 19.1688 38.2887 19.21C38.3904 19.2735 38.0687 19.3059 37.9582 19.3524C37.1687 19.6848 36.3842 19.9996 35.5764 20.2926C34.5005 20.6828 33.3444 20.8716 32.2289 21.1188C32.1487 21.1365 30.8279 21.3161 31.048 21.0034C31.1275 20.8904 31.3564 20.8369 31.4767 20.7997C32.0791 20.6135 32.7241 20.5283 33.3428 20.4179C34.8386 20.1511 36.3418 19.8624 37.867 19.8624C38.2814 19.8624 38.7125 19.8501 39.1234 19.9165C39.1579 19.9221 39.457 20.002 39.2659 20.002C38.6756 20.002 38.0589 19.7758 37.4781 19.6943C35.9705 19.4826 34.4528 19.3793 32.934 19.502C32.2289 19.5589 30.1508 19.9901 30.8557 19.9307C31.5626 19.8712 32.2919 19.5126 32.9753 19.341C34.288 19.0114 35.6565 18.9668 37.0009 19.0818C38.0887 19.1747 39.1785 19.3585 40.1847 19.7997C40.7362 20.0415 41.0954 20.3389 41.1234 20.982C41.1384 21.3269 41.0562 21.896 40.8613 22.1971C40.8527 22.2104 40.7791 21.6804 40.7701 21.6003C40.6939 20.9217 40.6568 20.2354 40.5337 19.5632C40.4512 19.113 40.2041 18.6479 40.1719 18.1957C40.1552 17.962 40.4245 18.1832 40.4995 18.2555C40.7815 18.5276 41.0321 18.8504 41.2758 19.1558C42.3382 20.487 43.0527 22.0682 43.3955 23.7313C43.5058 24.2666 43.6292 24.8023 43.7502 25.3353C43.7929 25.5236 43.924 25.776 43.924 25.9692C43.924 26.8705 43.8043 24.1656 43.6305 23.2812C43.5575 22.9096 43.264 21.8133 43.3243 22.1871C43.3963 22.6341 43.3842 23.0857 43.3855 23.5376C43.389 24.7898 43.4223 26.0448 43.4496 27.2968C43.4665 28.0717 43.4815 28.8388 43.5451 29.6116C43.5942 30.2096 43.6164 30.8012 43.4995 31.3936C43.4815 31.4848 43.2678 32.029 43.3399 32.1102C43.3614 32.1344 43.3852 31.9917 43.3855 31.9891C43.4056 31.8387 43.4383 31.6889 43.4624 31.5389C43.593 30.7274 43.8071 29.9218 43.9838 29.1187C44.1785 28.2339 44.3842 27.2883 44.3442 26.3766C44.3292 26.034 44.3049 25.5178 44.0864 25.2327C43.9604 25.0685 43.8734 24.8896 43.7573 24.7199C43.736 24.6888 43.6109 24.5161 43.6676 24.6401C43.6983 24.7074 43.694 24.78 43.6918 24.8524C43.6773 25.314 43.6009 25.774 43.5237 26.2284C43.3168 27.4463 43.0899 28.6627 42.7929 29.8623C42.4747 31.1475 41.3729 34.9641 41.7117 33.6842C42.0077 32.5661 42.1991 31.4102 42.3627 30.2669C42.6182 28.4813 42.7089 26.7001 42.5009 24.9065C42.3789 23.8548 42.1571 22.7448 41.622 21.8168C41.579 21.7422 41.1495 21.1632 41.3 21.5646C41.3956 21.8196 41.4644 22.0845 41.5365 22.3467C41.7451 23.1053 41.9875 23.8605 42.1462 24.6316C42.5135 26.4167 42.6529 28.2363 42.6661 30.056C42.6731 31.0134 42.6705 31.9896 42.5408 32.9406C42.5147 33.1317 42.5137 33.1004 42.5137 32.9421C42.5137 32.3454 42.5043 31.7493 42.4824 31.1529C42.4116 29.2236 42.4629 27.2654 42.2146 25.3495C42.0113 23.7813 41.5046 22.372 40.7416 20.9963C40.6233 20.7828 40.5134 20.495 40.31 20.3424C40.2038 20.2628 40.1167 20.2911 40.1647 20.4279C40.2605 20.7008 40.395 20.9614 40.5023 21.2299C40.8293 22.0472 41.1121 22.8846 41.3713 23.7256C42.2914 26.7121 42.746 29.8776 42.3855 32.9962C42.2972 33.7604 42.2368 31.4646 42.1861 30.6971C42.1174 29.657 42.0901 28.6149 42.0265 27.5746C41.9608 26.4993 41.7484 25.4417 41.4938 24.3965C41.2222 23.2819 40.7668 21.9956 39.9411 21.1558C39.8822 21.096 39.3892 20.6758 39.5821 21.0077C40.0606 21.8306 40.4272 22.734 40.7103 23.6401C41.3155 25.5776 41.6755 27.603 41.9895 29.6045C42.1021 30.3225 42.1664 31.03 42.169 31.7569C42.1705 32.1631 42.2309 32.688 42.0978 33.0845C42.0205 33.3146 41.9082 32.9198 41.8955 32.8708C41.7351 32.2559 41.6861 31.625 41.6405 30.9934C41.494 28.9655 41.4926 26.9765 40.9696 24.9962C40.6164 23.6592 40.1488 22.21 39.1263 21.2199C39.0951 21.1897 38.9229 21.0099 38.8585 21.0646C38.8083 21.1073 38.9751 21.3334 38.9952 21.3666C39.5994 22.3644 40.0483 23.4802 40.4397 24.5732C41.1542 26.5685 41.7061 28.6118 41.9696 30.717C42.0568 31.4143 42.1145 32.1144 42.1946 32.8124C42.2334 33.15 42.2806 33.488 42.2915 33.8281C42.2944 33.9171 42.3198 34.1544 42.253 34.2412C42.1891 34.3244 42.0246 33.8225 42.0237 33.8196C41.764 33.0179 41.5587 32.1996 41.3285 31.3894C40.7288 29.2781 40.1382 27.1447 39.4154 25.0717C39.042 24.0007 38.6644 22.9367 38.189 21.9065C38.1689 21.863 38.1168 21.7296 38.1405 21.7712C38.2709 22.0003 38.3796 22.2553 38.4796 22.4977C38.8032 23.2826 39.0425 24.1026 39.3043 24.9094C39.6813 26.0709 40.0447 27.2358 40.3969 28.4051C41.0097 30.4392 41.6441 32.5236 41.4938 34.6743C41.493 34.6848 41.4863 35.084 41.404 34.8851C41.1875 34.3619 41.0877 33.7712 40.9895 33.217C40.811 32.2089 40.7203 31.1847 40.5878 30.17C40.4406 29.0429 40.2702 27.9187 40.1063 26.794C39.9744 25.8885 39.8314 25.0125 39.5465 24.1401C39.3318 23.4828 39.0978 22.8147 38.6562 22.2712C38.6002 22.2023 38.434 22.0357 38.434 22.1245C38.434 22.4234 38.6461 22.7759 38.7474 23.0447C39.4292 24.8551 40.2245 26.6603 40.7345 28.5276C41.1793 30.1557 41.5699 31.8449 41.7274 33.529C41.7324 33.582 41.8397 34.277 41.7032 34.3067C41.6018 34.3288 41.4462 33.2733 41.4283 33.1871C41.2702 32.4296 41.0788 31.6822 40.8841 30.9335C40.5247 29.5516 40.2332 28.1537 39.9126 26.7626C39.5463 25.1731 39.2126 23.553 38.3898 22.1245C38.3509 22.057 38.1957 21.6915 38.0693 21.6886C37.9873 21.6867 38.0439 22.0379 38.0465 22.0732C38.1451 23.429 38.5716 24.7712 38.9268 26.076C39.5616 28.408 40.211 30.7465 40.4909 33.1529C40.5529 33.6859 40.6187 34.2262 40.6006 34.764C40.5993 34.8034 40.546 35.2697 40.5337 35.2441C40.3468 34.8538 40.2398 34.3879 40.122 33.9748C39.8521 33.0284 39.6458 32.0599 39.4226 31.1016C38.8872 28.8039 38.3893 26.4962 37.9781 24.1729C37.8534 23.4681 37.3123 21.3883 37.4781 22.0846C37.5234 22.2748 37.6029 22.46 37.6761 22.6401C37.9611 23.3409 38.2416 24.0419 38.5052 24.7512C39.2496 26.7546 39.7826 28.845 39.9368 30.9805C39.9879 31.6882 40.0432 32.3948 40.1035 33.1016C40.1395 33.5234 40.2531 34.0551 40.1491 34.4748C40.098 34.6808 39.9652 34.4579 39.9297 34.3765C39.5385 33.4811 39.3375 32.4778 39.1106 31.5332C38.5101 29.0329 37.9425 26.5385 37.0949 24.1074C36.8697 23.4614 36.6595 22.7989 36.3813 22.1729C36.3651 22.1366 36.017 21.3637 35.8927 21.5176C35.7625 21.6788 35.9758 22.2236 36.0095 22.3894C36.1871 23.2649 36.383 24.1399 36.5251 25.0219C36.7148 26.1984 36.8698 27.3779 37.1092 28.5461C37.4116 30.0219 37.7814 31.4801 38.1761 32.9335C38.4335 33.881 38.7093 34.82 39.0209 35.7512C39.1546 36.151 39.3462 36.5982 39.3741 37.0247C39.3924 37.3032 39.2725 36.4758 39.2146 36.2027C39.0007 35.1945 38.704 34.2024 38.4439 33.2056C38.1417 32.0472 37.8413 30.8897 37.6249 29.7113C37.3644 28.2934 37.2154 26.8606 37.0294 25.4321C36.9435 24.772 36.8544 24.1113 36.7189 23.4592C36.7042 23.3887 36.5211 22.753 36.518 22.8168C36.5052 23.0798 36.5389 23.3621 36.5622 23.623C36.6367 24.4598 36.7472 25.2993 36.8969 26.1259C37.3656 28.7135 37.9858 31.2966 38.6334 33.8452C38.7701 34.3831 38.9284 34.9313 39.1847 35.4264C39.3112 35.6708 39.5256 35.8718 39.6163 35.4762C39.719 35.0283 39.4731 34.4797 39.357 34.0617C39.0352 32.9026 38.7147 31.7431 38.4283 30.5746C37.896 28.4033 37.31 26.2438 37.1548 24.0062C37.1425 23.8299 37.156 23.4316 37.0009 23.2983C36.8086 23.1329 36.719 23.8488 36.7189 23.851C36.6509 24.7962 36.7115 25.7548 36.7744 26.6985C36.8696 28.1263 37.0143 29.5587 37.2929 30.9634C37.6374 32.7001 38.4695 34.2921 38.9211 36.0019C38.9875 36.253 38.9713 36.1588 38.9197 35.9862C38.7682 35.4794 38.6315 34.9677 38.4909 34.4577C37.7567 31.794 36.7021 29.228 36.0522 26.5404C35.8856 25.8515 35.7732 25.1486 35.7303 24.4407C35.7282 24.4066 35.7502 23.8692 35.7645 23.9991C35.923 25.4419 35.9333 26.8734 36.2075 28.3082C36.5951 30.3364 37.1852 32.3243 37.7046 34.321C37.7829 34.6218 37.8428 35.0892 38.0551 35.3381C38.0983 35.3888 37.9805 34.7191 37.9767 34.7013C37.5298 32.5855 36.8584 30.5346 36.3257 28.4407C36.1099 27.5922 35.884 26.7456 35.7203 25.8851C35.5867 25.1827 35.5062 24.4514 35.2858 23.7683C35.2593 23.6861 35.1558 23.4736 35.1348 23.5575C35.075 23.7967 35.1407 24.1329 35.1605 24.3695C35.228 25.1754 35.421 25.9708 35.5764 26.7626C35.8258 28.0329 36.0698 29.3039 36.3457 30.5689C36.6562 31.9931 37.0227 33.421 37.189 34.8723C37.2053 35.0149 37.2123 35.1824 37.1434 34.9392C36.9774 34.3534 36.8611 33.7538 36.6961 33.1671C36.0767 30.9648 35.172 28.858 34.7531 26.5988C34.6471 26.0272 34.5412 25.4452 34.4938 24.8652C34.4883 24.7976 34.5108 23.9716 34.5252 23.982C34.6314 24.0593 34.5905 24.3484 34.5921 24.4478C34.6039 25.1639 34.7359 25.878 34.8314 26.586C35.093 28.5244 35.4119 30.4266 35.9411 32.3124C36.1238 32.9636 36.34 33.6023 36.5992 34.227C36.6712 34.4004 36.8854 34.8946 36.8941 34.707C36.9054 34.4648 36.7951 34.1962 36.7246 33.9706C36.4935 33.2307 36.1934 32.5083 35.9012 31.7911C35.1216 29.8775 34.2702 27.9624 33.9311 25.9093C33.8644 25.505 33.8387 25.0723 33.6933 24.6857C33.6439 24.5547 33.5461 24.4356 33.4938 24.6287C33.4149 24.9201 33.4708 25.279 33.4938 25.5717C33.5707 26.5498 33.8158 27.5184 34.0152 28.4763C34.396 30.3058 34.839 32.1323 35.3799 33.9221C35.4623 34.1949 35.5564 34.6599 35.773 34.8765C35.8957 34.9992 35.6706 34.5434 35.5935 34.3879C34.9439 33.0768 34.6329 31.5682 34.2858 30.1558C33.9582 28.8221 33.7498 27.4173 33.6135 26.0504C33.5917 25.8319 33.5526 25.5576 33.6163 25.341C33.6442 25.2463 33.6885 25.5858 33.689 25.6059C33.7169 26.6957 33.8103 27.7689 33.9354 28.8538C34.0716 30.0351 34.134 31.209 34.1961 32.3951C34.2071 32.6049 34.1955 32.8796 34.283 33.0788C34.311 33.1427 34.2881 32.9054 34.2858 32.8965C34.042 31.9212 33.9571 30.9198 33.7403 29.9392C33.5057 28.8786 33.1651 27.8665 33.1235 26.774C33.1192 26.6615 33.075 26.1035 33.1448 26.4991C33.2941 27.3447 33.3457 28.2077 33.4725 29.0575C33.6525 30.2646 33.7747 31.4848 33.9924 32.6857C34.0618 33.0683 34.1459 33.4485 34.2303 33.8281C34.2755 34.0317 34.2895 34.3792 34.4383 34.5404C34.5622 34.6746 34.8345 34.3953 34.8813 34.2896C34.9752 34.0774 34.6881 33.7288 34.5793 33.5731C34.153 32.9631 33.8405 32.2573 33.6078 31.5518C33.5407 31.3485 33.4872 31.1422 33.4397 30.9335C33.4319 30.8995 33.3685 30.5432 33.4112 30.7526C33.5237 31.3039 33.4918 31.8486 33.6762 32.3951C33.997 33.3459 34.3964 34.3385 34.9354 35.1899C35.0334 35.3447 35.6759 36.0682 35.8628 35.6244C35.9024 35.5303 35.8462 35.4076 35.7787 35.3409C35.5074 35.073 35.1719 34.8785 34.9041 34.603C34.2759 33.9569 33.9682 33.2783 33.716 32.4293C33.4984 31.6964 33.2976 30.9412 33.4568 30.1757C33.4579 30.1704 33.5102 30.0145 33.4967 30.0532C33.4063 30.3115 33.3432 30.5918 33.2987 30.8609C33.162 31.6862 33.2005 32.51 33.4368 33.3153C33.6679 34.1024 33.9825 35.1082 34.6178 35.6728C35.0315 36.0406 35.4644 36.1579 35.9924 36.2697C36.3912 36.3541 35.8777 35.9875 35.7816 35.9121C34.9684 35.2746 34.279 34.4318 33.9155 33.4606C33.7904 33.1265 33.6721 32.7848 33.6206 32.4307C33.618 32.4128 33.5462 31.9561 33.6819 32.0375C33.8619 32.1455 33.9388 32.5725 33.9952 32.7426C34.1989 33.3568 34.3821 33.9676 34.6904 34.5404C35.1044 35.3096 35.695 36.0488 36.3784 36.5945C36.6305 36.7957 36.8757 37.0229 37.1747 37.1529C37.4708 37.2815 37.7826 37.3526 38.0978 37.415C38.7676 37.5476 39.4449 37.6195 40.122 37.7042C40.3547 37.7332 41.0467 37.8182 40.8243 37.744C40.7147 37.7075 40.5702 37.7305 40.4567 37.7198C40.0494 37.6816 39.6469 37.5918 39.2516 37.4891C38.388 37.2647 37.5472 36.9554 36.7944 36.4705C36.5675 36.3244 35.9591 35.7904 36.1861 35.9364C36.5571 36.1749 36.8778 36.5275 37.226 36.7996C37.987 37.3943 38.7288 38.0027 39.565 38.4919C40.2235 38.8771 41.0086 39.0275 41.7573 39.1258C42.011 39.1591 42.2677 39.1674 42.5223 39.1927C42.61 39.2015 42.7899 39.2535 42.8755 39.1984C42.9451 39.1537 42.7134 39.1657 42.632 39.1514C42.316 39.0959 42.0031 39.0111 41.6961 38.9192C40.4324 38.5411 39.218 37.9696 38.0992 37.274C37.5265 36.9179 36.9093 36.5893 36.3571 36.2042C36.1857 36.0846 36.5306 36.4032 36.5707 36.452C36.7769 36.7031 37.0643 36.8906 37.3172 37.0902C37.7227 37.4104 38.1492 37.6956 38.5793 37.9819C39.4494 38.5613 40.4349 39.1031 41.4439 39.4007C41.7769 39.4989 42.1444 39.5488 42.4909 39.5603C42.7156 39.5677 43.0816 39.5758 43.2801 39.4435C43.3843 39.374 43.249 39.3209 43.1918 39.3081C42.9151 39.2461 42.64 39.1979 42.3656 39.1229C41.4683 38.8777 40.567 38.6387 39.6747 38.3765C38.7792 38.1134 37.9459 37.7224 37.1035 37.3267C36.8539 37.2094 36.5957 37.1071 36.3528 36.9762C36.2692 36.9312 36.049 36.7681 36.0978 36.8495C36.1236 36.8924 36.2352 36.9285 36.2744 36.9534C36.5991 37.1601 36.9115 37.3835 37.2545 37.5603C38.4477 38.1752 39.7344 38.6077 41.018 38.9862C41.4861 39.1242 42.1907 39.4192 42.6961 39.2896C42.7114 39.2857 42.0116 38.8571 41.9425 38.8238C40.9647 38.3528 40.0065 37.8374 39.0778 37.2754C37.9955 36.6204 36.9625 35.8608 36.2645 34.7854C36.2411 34.7493 35.7677 34.0455 35.8214 34.0275C35.9961 33.9693 36.4407 34.347 36.565 34.4264C38.0232 35.3578 39.326 36.5022 40.7844 37.4306C41.699 38.0129 42.6559 38.5215 43.5536 39.1301C43.8882 39.3569 43.003 38.5348 42.6918 38.2768C41.5491 37.3296 40.3003 36.5138 39.2345 35.4748C38.8192 35.07 38.4208 34.637 38.0579 34.1842C38.045 34.1681 37.6705 33.7247 37.8257 33.7127C37.9668 33.7019 38.1625 33.9781 38.2431 34.0532C38.7352 34.5114 39.2249 34.969 39.7046 35.4406C40.856 36.5726 41.9799 37.7434 43.2573 38.7369C43.3701 38.8246 44.9819 39.9832 45.0906 39.7113C45.1207 39.6361 44.8866 39.3844 44.847 39.338C44.4775 38.9056 43.9806 38.5665 43.5507 38.1985C42.4839 37.2851 41.6004 36.2254 40.8485 35.0403C40.7166 34.8325 40.4711 34.5237 40.4596 34.2583C40.4536 34.1209 40.5146 34.1306 40.5935 34.2013C41.1611 34.7099 41.69 35.2549 42.2302 35.7925C43.4331 36.9893 44.8157 37.9858 46.2573 38.8765C46.5836 39.0781 46.9737 39.3669 47.3627 39.4363C47.5763 39.4745 47.2345 39.2013 47.2217 39.1913C45.9088 38.1673 44.6272 37.0529 43.528 35.7996C42.7266 34.886 41.9991 33.944 41.5892 32.7925C41.4814 32.4894 42.095 33.1576 42.1263 33.1956C42.8103 34.0282 43.6457 34.7539 44.4297 35.4891C45.9018 36.8696 50.6965 40.5731 49.1903 39.2298C47.9083 38.0864 46.5433 37.0482 45.2943 35.8651C44.7281 35.3288 44.167 34.7869 43.5792 34.274C43.2414 33.9791 42.8984 33.6536 42.5166 33.415C42.1366 33.1775 42.7808 33.6481 42.8442 33.6956C43.7722 34.3916 44.6774 35.1118 45.622 35.7882C46.7517 36.5972 47.8 37.5065 48.9538 38.2825C49.875 38.9019 50.8045 39.4869 51.7929 39.9933C51.8117 40.003 52.352 40.2992 52.2957 40.3238C52.1664 40.3804 51.6813 40.0781 51.5763 40.0289C50.3408 39.4503 49.2101 38.5926 48.1348 37.7626C47.6408 37.3813 47.1585 36.9865 46.6732 36.5945C46.5848 36.523 45.9951 36.1333 46.0351 35.9933C46.0495 35.9429 47.0196 36.4841 47.0835 36.5261C47.4805 36.7866 47.8988 37.0122 48.2986 37.2683C48.9286 37.6718 49.5216 38.1329 50.1205 38.5802C50.7126 39.0224 51.3018 39.4651 51.8498 39.962C52.4187 40.4777 52.9648 41.012 53.582 41.4719C53.5903 41.4781 53.9845 41.7983 54.0307 41.6956C54.0808 41.5844 53.8945 41.353 53.8456 41.2768C53.3408 40.4915 52.6006 39.8937 51.9125 39.2754C51.5056 38.9096 51.096 38.5432 50.6675 38.2027C50.558 38.1157 50.4476 38.0319 50.3427 37.9392C50.3094 37.9097 50.2402 37.8092 50.2402 37.8537C50.2402 37.8894 50.4258 38.0144 50.4481 38.0361C50.7135 38.2942 50.9894 38.5409 51.2487 38.8053C52.2155 39.7912 53.1026 40.8578 53.9609 41.9392C54.6234 42.7738 55.2721 43.6434 56.0265 44.3978" stroke="#153D5D" stroke-linecap="round"/>
<path d="M30.9454 18.1824C31.8095 17.7072 32.767 17.2004 33.7658 17.11C34.3316 17.0589 34.9321 17.1912 35.492 17.2623C36.0367 17.3315 36.529 17.387 36.9969 17.6936C37.2408 17.8533 37.6545 18.1399 37.6943 18.4588" stroke="#153D5D" stroke-linecap="round"/>
<path d="M25.233 31.7262C26.1197 30.9275 26.991 30.1137 27.9216 29.3653C28.5724 28.8419 29.2357 28.3348 29.8859 27.8105" stroke="#153D5D" stroke-linecap="round"/>
<path d="M35.3488 33.3235C35.4854 33.5114 35.5468 33.5801 35.774 33.7406C37.0253 34.6243 38.3971 35.3313 39.7064 36.1206" stroke="#153D5D" stroke-linecap="round"/>
<path d="M39.4709 32.5285C40.4392 33.5452 41.6312 34.3211 42.7768 35.1195C43.2326 35.4372 43.6537 35.795 44.1165 36.1042C44.9627 36.6696 45.6983 37.3843 46.5668 37.9166" stroke="#153D5D" stroke-linecap="round"/>
<path d="M41.2964 38.4466C42.4105 39.0138 43.6459 39.3392 44.7838 39.8681C45.5189 40.2098 46.2191 40.6166 46.9299 41.0049C48.3489 41.7802 49.7458 42.5476 51.2548 43.1314C51.839 43.3574 52.422 43.5761 53.01 43.7906C53.3119 43.9008 53.6508 44.0239 53.9276 44.1881C54.2884 44.4021 54.6636 44.5021 55.0759 44.5708" stroke="#153D5D" stroke-linecap="round"/>
<path d="M41.2539 39.1995C41.7221 39.563 42.1575 39.9479 42.6555 40.2681C43.0031 40.4915 43.3798 40.6751 43.748 40.8623C44.6787 41.3351 45.5359 41.9641 46.4841 42.3992C46.8433 42.564 47.214 42.6962 47.591 42.8125C47.619 42.8211 47.9792 42.9381 47.9792 42.8964C47.9792 42.8038 47.3587 42.6524 47.282 42.628C46.8725 42.4977 46.4505 42.4579 46.0517 42.2806C45.5526 42.0588 45.0594 41.8132 44.565 41.581C43.6216 41.1379 42.8376 40.461 41.9955 39.8608C41.6814 39.6369 41.3246 39.4367 41.0527 39.1612C40.8959 39.0023 41.0276 39.0108 41.1629 39.0869C42.0037 39.5599 42.7788 40.1602 43.6007 40.667C44.6647 41.323 45.7744 41.7588 46.9909 42.0243C48.2017 42.2884 49.2778 42.8929 50.4541 43.2533C50.4797 43.2612 50.8774 43.3474 50.7392 43.2629C50.5581 43.1522 50.3463 43.1238 50.157 43.0305C48.0448 41.9889 45.8718 41.0428 43.9134 39.717C43.6899 39.5657 42.9373 39.1492 43.0688 38.7766C43.1219 38.6263 43.6617 38.962 43.7361 38.9983C44.6853 39.4606 45.5502 40.0798 46.4614 40.6095C47.4632 41.1918 48.6166 41.7124 49.7761 41.8829C50.0079 41.917 50.2732 41.9807 50.5092 41.95C50.5528 41.9443 50.737 41.9118 50.6626 41.8374C50.5635 41.7383 50.4208 41.6998 50.3032 41.6289C49.8424 41.3514 49.3788 41.0788 48.9232 40.7928C47.5877 39.9545 46.2788 39.0831 44.9771 38.1932C44.6261 37.9533 44.2979 37.6776 43.9313 37.4613C43.816 37.3932 43.8046 37.3698 43.9409 37.4206C44.5184 37.6357 45.0544 37.9134 45.5641 38.2651C46.9468 39.2191 48.2222 40.3177 49.6239 41.2468C50.1809 41.616 50.7539 41.9373 51.3454 42.2471C51.7242 42.4454 52.1017 42.68 52.5218 42.7814C52.7039 42.8253 52.5218 42.7304 52.4691 42.6999C52.2621 42.5803 52.052 42.4947 51.8318 42.4028C50.2729 41.7521 48.7069 41.0979 47.1718 40.3939C45.9205 39.82 44.4832 39.2154 43.5013 38.2076C43.1771 37.8749 43.3912 37.6376 43.802 37.7608C44.2892 37.9069 44.7638 38.1699 45.2251 38.3789C46.0901 38.7708 46.9164 39.2382 47.7372 39.7146C49.2517 40.5936 50.7514 41.4942 52.2918 42.3285C52.6646 42.5305 53.0424 42.729 53.4334 42.894C53.4769 42.9123 53.8003 43.0432 53.6215 42.8916C53.503 42.7911 53.3777 42.6985 53.2477 42.6136C52.7842 42.3108 52.3743 41.9326 51.942 41.5882C50.4315 40.385 48.8456 39.285 47.3131 38.1118C46.993 37.8667 46.6879 37.6025 46.3679 37.3571C46.334 37.331 46.1134 37.1809 46.2865 37.2636C47.1599 37.6814 47.9897 38.2243 48.7782 38.7802C50.2969 39.851 51.7693 40.9939 53.2693 42.0913C53.9089 42.5593 54.534 43.0523 55.198 43.4857C55.2078 43.4921 55.6063 43.714 55.5669 43.6463C55.5159 43.5586 55.3888 43.4886 55.3118 43.4258C55.0869 43.2426 54.8231 43.1022 54.5798 42.9455C53.2127 42.065 51.7615 41.3445 50.3295 40.5795C49.7197 40.2538 49.1208 39.9115 48.547 39.5253C48.1139 39.2339 47.6167 38.9398 47.2484 38.5634C47.2267 38.5412 46.9435 38.234 47.1179 38.234C47.2794 38.234 47.4247 38.3309 47.5623 38.4029C48.6539 38.9737 49.6208 39.7193 50.6434 40.3998C51.8923 41.231 53.2095 41.9396 54.5822 42.5442C54.9719 42.7158 55.3584 42.8905 55.7358 43.088C55.9841 43.218 56.2829 43.3426 56.4905 43.5349C56.5317 43.5729 56.7991 43.9749 56.681 43.8883C56.5322 43.7791 56.3982 43.6551 56.2665 43.5265C55.7889 43.0598 55.243 42.6574 54.7559 42.198C54.4416 41.9015 54.038 41.5792 53.8946 41.1546C53.8281 40.9576 54.1754 41.2748 54.2133 41.3127C54.5734 41.6728 54.9777 41.989 55.3693 42.3154C56.0804 42.908 56.7371 43.5537 57.3447 44.2524C57.5308 44.4664 57.7259 44.6811 57.8718 44.9257C57.985 45.1154 58.0796 45.314 58.2096 45.4935C58.2259 45.5161 58.3976 45.8899 58.3102 45.8577C57.821 45.6774 57.3115 45.5308 56.8032 45.3881C54.6802 44.7921 52.5397 44.063 50.6027 42.9922C50.4195 42.8909 50.2195 42.7802 50.0636 42.6376C49.9619 42.5446 50.0149 42.5046 50.1307 42.5394C50.7311 42.7195 51.3165 43.0323 51.8917 43.2773C53.0441 43.7683 54.1883 44.3058 55.3705 44.722C55.855 44.8926 56.3253 45.0985 56.808 45.2731C57.0123 45.3469 57.2248 45.3976 57.4237 45.4863C57.5952 45.5628 57.2108 45.5128 57.1746 45.5043C56.3905 45.319 55.5896 45.2295 54.8003 45.0694C53.728 44.8519 52.6479 44.55 51.6029 44.2249C51.2502 44.1151 50.895 44.0096 50.5727 43.826C50.4808 43.7736 50.2096 43.6639 50.1954 43.5361C50.1709 43.3154 50.8451 43.443 50.9381 43.4666C52.1055 43.7623 53.2433 44.1893 54.3426 44.6765C55.2778 45.0909 56.2121 45.4869 57.1782 45.8241C57.2934 45.8644 58.0133 46.0114 57.6633 45.7163C57.5039 45.5819 57.3188 45.4807 57.1482 45.3617C56.65 45.0141 56.1774 44.6299 55.6867 44.2716C55.3596 44.0327 55.0213 43.814 54.6841 43.59C54.3604 43.375 54.0578 43.1247 53.7089 42.9503C53.6222 42.9069 53.352 42.8197 53.449 42.8197C53.5428 42.8197 53.6791 42.9102 53.7676 42.9419C54.6788 43.2679 55.5575 43.6249 56.4438 44.0176C57.2884 44.3918 58.1294 44.7787 58.9775 45.1437C58.9935 45.1506 59.2283 45.2563 59.1799 45.2563C59.0795 45.2563 58.972 45.221 58.8697 45.2156C58.2597 45.1835 57.6828 44.967 57.1243 44.7364C56.1967 44.3535 55.3869 43.8177 54.5846 43.2198C53.9877 42.775 53.4106 42.3214 52.9159 41.7619C52.815 41.6478 52.721 41.5275 52.6751 41.3798C52.642 41.2734 52.6372 41.1734 52.5649 41.0827C52.3762 40.8459 52.2307 40.5806 52.0438 40.3459C51.8279 40.0748 51.5226 39.8736 51.3598 39.5565C51.3059 39.4515 51.2744 39.2853 51.367 39.1875C51.4249 39.1264 51.2791 39.0731 51.2064 39.0438C50.9545 38.9423 50.7913 38.7609 50.5895 38.5874C50.466 38.4811 50.3271 38.3933 50.1966 38.2963C50.1806 38.2844 50.0421 38.1693 50.1331 38.1693C50.2923 38.1693 50.4141 38.3221 50.5356 38.4017C50.7823 38.5633 51.0404 38.7275 51.2951 38.8773C52.3961 39.5249 53.6108 40.065 54.5583 40.9413C55.1688 41.506 55.8542 41.9842 56.487 42.525C57.2433 43.1714 57.8512 43.9527 58.4959 44.7029C58.6831 44.9207 58.8476 45.1373 59.0506 45.3402C59.1077 45.3973 59.1523 45.4841 59.1284 45.5678C59.1284 45.568 59.05 45.4378 59.0338 45.4216C58.9411 45.329 58.8313 45.2587 58.7295 45.1772C58.4442 44.949 58.2089 44.6399 57.9652 44.3698C56.618 42.8765 55.329 41.27 53.7533 40.0093C52.5939 39.0818 51.4931 38.0179 50.157 37.3499C50.1152 37.329 49.6345 37.0481 49.8779 37.1942C50.0668 37.3075 50.2123 37.492 50.399 37.6134C50.9441 37.9679 51.4354 38.4008 51.9456 38.803C52.8124 39.4864 53.7177 40.1186 54.5906 40.794C55.7474 41.6889 56.9733 42.599 57.9029 43.7421C58.2258 44.1391 58.5842 44.5147 58.9308 44.8909C59.1372 45.1151 59.2869 45.3812 59.5166 45.5821C59.5805 45.6381 59.5231 45.6224 59.4746 45.6253C59.4367 45.6275 59.4531 45.7179 59.4531 45.7439C59.4531 45.8772 59.5372 45.9075 59.6088 45.987C59.7175 46.1079 59.6579 46.0874 59.5369 46.1009C59.1503 46.1438 58.8228 46.2615 58.4827 46.4447" stroke="#153D5D" stroke-linecap="round"/>
<path d="M57.6433 35.3436C57.8144 35.6062 57.9414 35.9111 58.0791 36.1935C58.1755 36.3911 58.2607 36.5935 58.3629 36.7881C58.4841 37.0192 58.5944 37.255 58.7186 37.4846C58.8429 37.7145 58.932 37.9594 59.0526 38.1906C59.2971 38.6594 59.65 39.0529 60.0559 39.384C60.3727 39.6424 60.8492 39.7476 61.2357 39.8592C61.4322 39.9159 61.6335 39.956 61.8344 39.9936C62.0515 40.0342 62.26 40.1096 62.4752 40.1579C62.9457 40.2633 63.4181 40.3616 63.8899 40.4606C64.1009 40.5049 64.3014 40.577 64.5077 40.6371C64.7316 40.7024 64.9563 40.7488 65.1756 40.8299C65.6064 40.9893 66.0613 41.0793 66.4831 41.2616C66.7275 41.3673 66.9605 41.5021 67.1999 41.6187C67.2816 41.6585 67.3724 41.6852 67.4633 41.6852C67.5086 41.6852 67.8275 41.6987 67.8339 41.6092C67.8506 41.3765 67.7244 41.166 67.6751 40.9426C67.5924 40.5683 67.4688 40.1849 67.4307 39.8035" stroke="#153D5D" stroke-linecap="round"/>
<path d="M58.9751 36.4922C59.0366 36.5677 59.1054 36.6136 59.1883 36.6687C59.4334 36.8315 59.681 36.9927 59.9364 37.1391C60.3168 37.3572 60.6988 37.5725 61.0795 37.7901C61.7673 38.1832 62.4629 38.5625 63.1527 38.9523C63.7512 39.2905 64.3611 39.5891 64.9991 39.8442C65.32 39.9726 65.6601 40.0326 65.9793 40.1694C66.2492 40.2851 66.5442 40.3183 66.8014 40.4633C66.8785 40.5068 66.9671 40.53 67.0369 40.5855C67.0709 40.6125 67.0906 40.647 67.0424 40.6005C66.9785 40.5388 66.899 40.4837 66.8217 40.4416C66.5109 40.2721 66.1654 40.1525 65.8435 40.0044C65.2494 39.7312 64.6502 39.4699 64.0528 39.2041C63.4082 38.9174 62.7821 38.5904 62.1534 38.2707C61.6747 38.0273 61.1869 37.801 60.7116 37.5512C60.5691 37.4763 60.4143 37.4075 60.2893 37.3041C60.2029 37.2324 60.129 37.1452 60.047 37.0685C59.9534 36.9809 60.0511 37.0077 60.1183 37.0271C60.2967 37.0786 60.4661 37.1342 60.6288 37.2273C61.5744 37.7686 62.5057 38.4293 63.5681 38.7221C63.8122 38.7894 64.1007 38.8039 64.3325 38.9088C64.4332 38.9544 64.3253 38.9537 64.2741 38.9278C63.5493 38.5615 62.8533 38.1453 62.1398 37.7575C61.6846 37.5101 61.2257 37.2668 60.7598 37.04C60.4127 36.871 60.0523 36.7177 59.7157 36.5282C59.5189 36.4173 59.3171 36.3104 59.1231 36.1948C59.0107 36.1279 58.9132 36.0498 58.7885 36.0055C58.6547 35.9579 58.6594 36.1302 58.6873 36.2166C58.9824 37.1288 59.5509 37.9409 60.2486 38.5911C60.6815 38.9946 61.173 39.3606 61.7461 39.5361C62.232 39.6847 62.7654 39.6589 63.2667 39.7173C63.3737 39.7298 63.554 39.779 63.6591 39.7519C63.6916 39.7435 63.608 39.6952 63.6041 39.6922C63.4007 39.5324 63.1683 39.4081 62.9544 39.2632C62.4432 38.9167 61.9143 38.6047 61.3768 38.3006C61.0301 38.1044 60.6732 37.9311 60.3206 37.7467C60.3102 37.7412 59.9512 37.5163 59.9635 37.5091C60.0137 37.4795 60.1898 37.5938 60.2316 37.6204C60.5736 37.8375 60.8944 38.0907 61.2275 38.3209C62.1722 38.9739 63.176 39.6578 64.3067 39.9352C64.6386 40.0167 64.9747 40.0637 65.3018 40.1647C65.4981 40.2252 65.6921 40.2913 65.8897 40.3473C65.9955 40.3772 66.1264 40.4029 66.2183 40.4661C66.2644 40.4977 66.2785 40.5578 66.3065 40.6039C66.3432 40.6642 66.3888 40.6931 66.4559 40.7172C66.5365 40.7462 66.5934 40.7993 66.6581 40.8543C66.7749 40.9536 66.8665 40.9031 66.9948 40.9426C67.0983 40.9744 67.2291 41.0203 67.3254 41.0695C67.3974 41.1063 67.4256 41.1468 67.47 41.2087C67.4771 41.2186 67.5481 41.3084 67.5522 41.2861C67.574 41.1662 67.5037 41.0367 67.4673 40.9277" stroke="#153D5D" stroke-linecap="round"/>
<path d="M24.9825 39.4847C24.8077 38.6606 26.0556 38.3851 26.5862 37.9237C27.4923 37.1358 28.0182 36.0329 28.949 35.2723C30.63 33.8985 32.2083 32.396 33.6425 30.7391C34.6247 29.6043 35.7107 28.3177 36.9888 27.4997C37.0865 27.4371 36.7762 29.2347 36.6253 29.5257C35.9279 30.8707 35.1566 32.1453 34.4283 33.4654C33.9441 34.3431 34.4714 35.4397 33.9792 36.3147C33.4515 37.2529 33.1613 38.5078 33.1613 39.5809" stroke="white" stroke-linecap="round"/>
<path d="M28.1299 36.6832C28.4709 36.7634 28.8144 36.8324 29.155 36.9178C29.7575 37.0688 30.2513 37.2473 30.7972 37.5275C31.0073 37.6353 31.2924 37.7319 31.4692 37.9013C31.52 37.9501 31.5215 37.9678 31.584 37.96C31.778 37.9357 32.1672 38.1824 32.2646 38.0015C32.3441 37.8539 32.3744 37.6862 32.454 37.5372C32.6276 37.2123 32.7662 36.8619 32.8914 36.5158C33.1999 35.6629 33.5183 34.8131 33.8286 33.9609C34.027 33.4159 34.3279 32.9199 34.547 32.3847C34.9835 31.3184 35.6561 30.4506 36.3798 29.5672C36.4997 29.4208 36.5984 29.2575 36.717 29.1102C36.7878 29.0222 36.9056 28.9493 36.9601 28.8524C37.1082 28.5891 36.8556 28.8191 36.7695 28.9C36.4444 29.2061 35.9863 29.3778 35.6259 29.6429C34.7844 30.262 34.0695 31.113 33.4302 31.9314C32.6815 32.8901 32.0574 33.9789 31.0281 34.6598C30.3635 35.0995 29.557 35.4666 29.0683 36.1284C28.943 36.298 28.8465 36.551 29.1623 36.418C29.5741 36.2447 29.8022 36.5949 30.1325 36.8151C30.4234 37.0091 30.7148 37.0929 30.9792 36.8335C31.3613 36.4586 31.5868 35.8957 31.826 35.4271C32.1564 34.7797 32.5044 34.1519 32.911 33.5491C33.1717 33.1625 33.4361 32.7698 33.7357 32.4116C33.7614 32.3809 34.0079 32.0932 33.8921 32.3016C33.8014 32.4649 33.6709 32.6013 33.5646 32.7537C33.2503 33.2047 33.1076 33.7386 32.9513 34.259C32.6671 35.2051 32.4535 36.1716 32.1155 37.101C32.0931 37.1628 32.2012 37.0598 32.2035 37.057C32.3272 36.9069 32.3323 36.681 32.3892 36.4999C32.745 35.3671 32.9635 34.1941 33.4119 33.0909C33.4509 32.995 33.6859 32.5418 33.5292 32.8893C33.4438 33.0786 33.3327 33.2421 33.1969 33.3989C32.9556 33.6773 32.7631 33.986 32.5566 34.2896C32.3507 34.5922 32.1152 34.872 31.9176 35.1803C31.6948 35.5278 31.3323 35.8689 30.9071 35.9244C30.598 35.9647 30.358 35.9381 30.058 35.8743C29.9612 35.8537 30.0428 35.9439 30.0751 35.9721C30.2203 36.0985 30.3575 36.1387 30.5198 36.2335C31.0346 36.5344 31.4743 37.0323 31.8785 37.4603C32.1202 37.7162 32.2865 38.0311 32.5236 38.2838C32.6086 38.3743 32.5452 38.2478 32.5236 38.2129C32.4207 38.0463 32.3337 37.8757 32.2524 37.6973C31.9124 36.9517 31.6442 36.145 31.4851 35.3416C31.4528 35.1789 31.3703 34.9017 31.4753 34.7441C31.5279 34.6652 31.6427 34.7233 31.716 34.7233C31.8749 34.7233 32.0724 34.5972 32.0874 34.8382C32.0957 34.9712 32.0636 35.1036 32.0679 35.2377C32.0795 35.5993 32.1335 35.9638 32.1925 36.3203C32.2813 36.8562 32.4032 37.386 32.5163 37.9172C32.5587 38.1162 32.5908 38.4576 32.7607 38.6039C32.8858 38.7116 32.8363 38.3106 32.8266 38.2838C32.6861 37.8921 32.5219 37.5934 32.1962 37.3307C31.8323 37.0373 31.4442 36.7375 31.2676 36.2946C31.1101 35.8997 31.1202 35.4808 31 35.0801C30.9597 34.9457 30.8917 34.7089 30.7605 34.9567C30.6676 35.1322 30.972 35.3581 31.1148 35.3721C31.4346 35.4035 31.6848 35.2171 31.9298 35.0325C32.4632 34.6305 32.8867 34.091 33.2848 33.5601C33.9392 32.6876 34.6256 31.7915 35.1799 30.8501C35.4479 30.395 35.6038 29.8846 35.8593 29.423C36.18 28.8435 36.6751 28.3789 37.0029 27.8028C37.0532 27.7144 37.1351 27.5599 37.246 27.5352C37.354 27.5112 37.3392 27.6584 37.356 27.7222C37.3902 27.852 37.367 28.0103 37.367 28.1425C37.367 28.4806 37.3294 28.7819 37.2583 29.1139C37.0589 30.0441 36.8611 30.9887 36.5753 31.8972C36.2359 32.9758 35.6105 33.9538 35.2997 35.0386C35.1705 35.4894 35.013 35.9341 34.894 36.3875C34.7788 36.8266 34.7264 37.3166 34.525 37.7291C34.4701 37.8416 34.4033 37.9436 34.3674 38.0651C34.3622 38.0828 34.2998 38.2845 34.299 38.2838C34.2528 38.2469 34.3109 37.9405 34.3087 37.8781C34.301 37.6495 34.2831 37.423 34.2892 37.1939C34.3069 36.5281 34.4889 35.8368 34.6521 35.1974C34.9232 34.1349 35.3288 33.1226 35.7945 32.1318C35.9456 31.8104 36.2134 31.4121 36.2234 31.0431C36.2266 30.9241 36.1019 30.9998 36.1183 30.9161C36.2358 30.3155 36.4775 29.7381 36.5972 29.1395" stroke="white" stroke-linecap="round"/>
<path d="M34.7345 34.7584C34.5604 35.0445 34.4204 35.3571 34.327 35.679C34.2121 36.0751 34.4141 36.5942 34.5137 36.9783C34.6866 37.6452 34.8256 38.3712 35.1473 38.9869C35.4436 39.5541 36.1464 39.78 36.6226 40.1496C36.6766 40.1916 36.4963 40.0927 36.4433 40.0493C36.3201 39.9484 36.2268 39.8063 36.1447 39.6717C35.4395 38.5167 34.825 37.2577 34.3803 35.9777C34.1777 35.3943 34.1418 34.7165 34.3035 34.1205C34.3878 33.8098 34.4993 33.5015 34.6769 33.2309C34.7628 33.0999 34.868 32.9934 34.9457 32.8575" stroke="white" stroke-linecap="round"/>
<path fill-rule="evenodd" clip-rule="evenodd" d="M67.9858 40.9589C67.9952 40.6267 68 40.2934 68 39.9589C68 21.2039 53.0015 6 34.5 6C15.9985 6 1 21.2039 1 39.9589C1 40.2934 1.00477 40.6267 1.01425 40.9589C1.53609 22.6664 16.3284 8 34.5 8C52.6716 8 67.4639 22.6664 67.9858 40.9589Z" fill="#183F5C"/>
<path d="M59 47.5L35 36.5L34.5 38L34.5641 38.0527C42.6305 44.6913 47.1729 48.4296 59 47.5Z" fill="white"/>
<path d="M84.3263 21.28C82.7797 21.28 81.593 20.84 80.7663 19.96C79.953 19.0667 79.5463 17.8133 79.5463 16.2V9.74H81.2863V16.18C81.2863 16.8333 81.3663 17.3867 81.5263 17.84C81.6997 18.28 81.9263 18.64 82.2063 18.92C82.4863 19.1867 82.8063 19.3867 83.1663 19.52C83.5397 19.64 83.9263 19.7 84.3263 19.7C84.9263 19.7 85.453 19.5933 85.9063 19.38C86.373 19.1533 86.733 18.78 86.9863 18.26C87.253 17.74 87.3863 17.0467 87.3863 16.18V9.74H89.1263V16.2C89.1263 17.84 88.7197 19.1 87.9063 19.98C87.1063 20.8467 85.913 21.28 84.3263 21.28ZM90.9651 21V12.82H92.3851L92.6651 14.72H92.7051C92.7184 14.6667 92.7717 14.54 92.8651 14.34C92.9584 14.14 93.1117 13.9267 93.3251 13.7C93.5384 13.46 93.8251 13.2533 94.1851 13.08C94.5451 12.9067 94.9984 12.82 95.5451 12.82C96.1184 12.82 96.5851 12.9133 96.9451 13.1C97.3184 13.2733 97.6117 13.5133 97.8251 13.82C98.0517 14.1133 98.2117 14.4467 98.3051 14.82C98.3984 15.18 98.4584 15.5533 98.4851 15.94C98.5117 16.3133 98.5251 16.6667 98.5251 17V21H96.9051V16.98C96.9051 16.4733 96.8517 16.02 96.7451 15.62C96.6384 15.2067 96.4451 14.8867 96.1651 14.66C95.8851 14.42 95.4651 14.3 94.9051 14.3C94.3451 14.3 93.8984 14.4333 93.5651 14.7C93.2451 14.9667 93.0117 15.3133 92.8651 15.74C92.7317 16.1533 92.6651 16.6067 92.6651 17.1V21H90.9651ZM100.346 21V12.82H102.006V21H100.346ZM101.186 11.68C100.8 11.68 100.533 11.58 100.386 11.38C100.253 11.18 100.186 10.9467 100.186 10.68C100.186 10.4267 100.253 10.2067 100.386 10.02C100.533 9.82 100.8 9.72 101.186 9.72C101.573 9.72 101.826 9.82 101.946 10.02C102.08 10.2067 102.146 10.4267 102.146 10.68C102.146 10.9467 102.08 11.18 101.946 11.38C101.826 11.58 101.573 11.68 101.186 11.68ZM109.693 12.82H111.333V13.12L108.393 21H106.053L103.093 13.14V12.82H104.713L107.233 19.62H107.273L109.693 12.82ZM116.053 21.2C115.133 21.2 114.38 21 113.793 20.6C113.207 20.1867 112.773 19.66 112.493 19.02C112.213 18.3667 112.073 17.6933 112.073 17C112.06 16.2133 112.207 15.5 112.513 14.86C112.833 14.22 113.287 13.7133 113.873 13.34C114.473 12.9667 115.187 12.78 116.013 12.78C116.733 12.78 117.373 12.94 117.933 13.26C118.493 13.5667 118.94 14.0067 119.273 14.58C119.607 15.14 119.787 15.8067 119.813 16.58C119.827 16.62 119.833 16.7 119.833 16.82C119.833 16.9267 119.833 17.02 119.833 17.1H113.653C113.653 17.9533 113.86 18.62 114.273 19.1C114.7 19.5667 115.287 19.8 116.033 19.8C116.593 19.8 117.067 19.66 117.453 19.38C117.853 19.0867 118.1 18.7 118.193 18.22H119.813C119.733 18.78 119.533 19.2867 119.213 19.74C118.893 20.1933 118.467 20.5533 117.933 20.82C117.4 21.0733 116.773 21.2 116.053 21.2ZM113.713 16.28H118.153C118.14 16.1333 118.1 15.94 118.033 15.7C117.98 15.46 117.873 15.2267 117.713 15C117.553 14.76 117.333 14.56 117.053 14.4C116.773 14.24 116.413 14.16 115.973 14.16C115.573 14.16 115.233 14.2267 114.953 14.36C114.673 14.4933 114.447 14.6733 114.273 14.9C114.1 15.1133 113.967 15.3467 113.873 15.6C113.793 15.84 113.74 16.0667 113.713 16.28ZM121.574 21V12.82H123.114L123.254 15.18L123.234 16.94V21H121.574ZM123.234 17.32L123.174 15.52C123.187 15.2267 123.254 14.9267 123.374 14.62C123.494 14.3 123.674 14.0067 123.914 13.74C124.167 13.46 124.487 13.24 124.874 13.08C125.274 12.9067 125.754 12.82 126.314 12.82H126.654V14.66H126.294C125.694 14.66 125.194 14.72 124.794 14.84C124.394 14.9467 124.08 15.1133 123.854 15.34C123.627 15.5667 123.467 15.8467 123.374 16.18C123.28 16.5133 123.234 16.8933 123.234 17.32ZM131.26 21.2C130.887 21.2 130.52 21.1467 130.16 21.04C129.813 20.9467 129.487 20.8067 129.18 20.62C128.887 20.4333 128.62 20.22 128.38 19.98C128.153 19.74 127.973 19.48 127.84 19.2C127.72 18.9067 127.66 18.6 127.66 18.28H129.22C129.22 18.2933 129.227 18.3867 129.24 18.56C129.267 18.7333 129.34 18.9333 129.46 19.16C129.58 19.3733 129.773 19.56 130.04 19.72C130.32 19.88 130.713 19.96 131.22 19.96C131.607 19.96 131.933 19.9133 132.2 19.82C132.48 19.7267 132.693 19.6 132.84 19.44C132.987 19.2667 133.053 19.06 133.04 18.82C133.04 18.4867 132.913 18.2267 132.66 18.04C132.407 17.8533 132.08 17.7067 131.68 17.6C131.28 17.48 130.86 17.3667 130.42 17.26C129.98 17.1533 129.56 17.0133 129.16 16.84C128.76 16.6533 128.433 16.4067 128.18 16.1C127.94 15.78 127.827 15.3533 127.84 14.82C127.84 14.1 128.14 13.5467 128.74 13.16C129.353 12.76 130.127 12.56 131.06 12.56C131.513 12.56 131.953 12.6133 132.38 12.72C132.807 12.8267 133.187 12.9933 133.52 13.22C133.867 13.4467 134.14 13.7467 134.34 14.12C134.553 14.4933 134.653 14.9533 134.64 15.5H133.1C133.113 15.1533 133.053 14.8733 132.92 14.66C132.8 14.4467 132.633 14.2867 132.42 14.18C132.207 14.06 131.98 13.98 131.74 13.94C131.513 13.8867 131.293 13.86 131.08 13.86C130.547 13.86 130.127 13.96 129.82 14.16C129.513 14.3467 129.36 14.6 129.36 14.92C129.36 15.2533 129.487 15.5133 129.74 15.7C129.993 15.8867 130.32 16.0333 130.72 16.14C131.12 16.2467 131.547 16.3533 132 16.46C132.453 16.5667 132.88 16.7133 133.28 16.9C133.68 17.0733 134.007 17.32 134.26 17.64C134.513 17.96 134.64 18.3867 134.64 18.92C134.64 19.44 134.493 19.8667 134.2 20.2C133.92 20.5333 133.527 20.7867 133.02 20.96C132.513 21.12 131.927 21.2 131.26 21.2ZM138.864 21.18C138.117 21.18 137.504 21 137.024 20.64C136.557 20.28 136.21 19.7867 135.984 19.16C135.77 18.5333 135.664 17.8133 135.664 17C135.664 16.16 135.777 15.4267 136.004 14.8C136.23 14.16 136.577 13.66 137.044 13.3C137.524 12.94 138.13 12.76 138.864 12.76C139.317 12.76 139.704 12.8267 140.024 12.96C140.344 13.08 140.61 13.2333 140.824 13.42C141.037 13.6067 141.21 13.8 141.344 14C141.477 14.1867 141.57 14.3533 141.624 14.5H141.664V12.82H143.364V21H141.944L141.664 19.54H141.624C141.57 19.6867 141.477 19.8533 141.344 20.04C141.21 20.2267 141.03 20.4067 140.804 20.58C140.59 20.7533 140.324 20.8933 140.004 21C139.684 21.12 139.304 21.18 138.864 21.18ZM139.524 19.76C140.057 19.76 140.477 19.6467 140.784 19.42C141.09 19.18 141.31 18.8533 141.444 18.44C141.577 18.0267 141.644 17.5533 141.644 17.02C141.644 16.4467 141.57 15.9533 141.424 15.54C141.29 15.1267 141.07 14.8133 140.764 14.6C140.457 14.3733 140.044 14.26 139.524 14.26C138.977 14.26 138.537 14.3867 138.204 14.64C137.884 14.88 137.65 15.2067 137.504 15.62C137.37 16.0333 137.304 16.4933 137.304 17C137.304 17.52 137.37 17.9933 137.504 18.42C137.65 18.8333 137.884 19.16 138.204 19.4C138.537 19.64 138.977 19.76 139.524 19.76ZM145.072 21V9.74H146.712V21H145.072ZM157.596 10.1V21H155.936V10.1H157.596ZM152.456 11.18V9.74H161.056V11.18H152.456ZM161.086 21V12.82H162.626L162.766 15.18L162.746 16.94V21H161.086ZM162.746 17.32L162.686 15.52C162.699 15.2267 162.766 14.9267 162.886 14.62C163.006 14.3 163.186 14.0067 163.426 13.74C163.679 13.46 163.999 13.24 164.386 13.08C164.786 12.9067 165.266 12.82 165.826 12.82H166.166V14.66H165.806C165.206 14.66 164.706 14.72 164.306 14.84C163.906 14.9467 163.592 15.1133 163.366 15.34C163.139 15.5667 162.979 15.8467 162.886 16.18C162.792 16.5133 162.746 16.8933 162.746 17.32ZM170.192 21.18C169.445 21.18 168.832 21 168.352 20.64C167.885 20.28 167.538 19.7867 167.312 19.16C167.098 18.5333 166.992 17.8133 166.992 17C166.992 16.16 167.105 15.4267 167.332 14.8C167.558 14.16 167.905 13.66 168.372 13.3C168.852 12.94 169.458 12.76 170.192 12.76C170.645 12.76 171.032 12.8267 171.352 12.96C171.672 13.08 171.938 13.2333 172.152 13.42C172.365 13.6067 172.538 13.8 172.672 14C172.805 14.1867 172.898 14.3533 172.952 14.5H172.992V12.82H174.692V21H173.272L172.992 19.54H172.952C172.898 19.6867 172.805 19.8533 172.672 20.04C172.538 20.2267 172.358 20.4067 172.132 20.58C171.918 20.7533 171.652 20.8933 171.332 21C171.012 21.12 170.632 21.18 170.192 21.18ZM170.852 19.76C171.385 19.76 171.805 19.6467 172.112 19.42C172.418 19.18 172.638 18.8533 172.772 18.44C172.905 18.0267 172.972 17.5533 172.972 17.02C172.972 16.4467 172.898 15.9533 172.752 15.54C172.618 15.1267 172.398 14.8133 172.092 14.6C171.785 14.3733 171.372 14.26 170.852 14.26C170.305 14.26 169.865 14.3867 169.532 14.64C169.212 14.88 168.978 15.2067 168.832 15.62C168.698 16.0333 168.632 16.4933 168.632 17C168.632 17.52 168.698 17.9933 168.832 18.42C168.978 18.8333 169.212 19.16 169.532 19.4C169.865 19.64 170.305 19.76 170.852 19.76ZM181.9 12.82H183.54V13.12L180.6 21H178.26L175.3 13.14V12.82H176.92L179.44 19.62H179.48L181.9 12.82ZM188.26 21.2C187.34 21.2 186.587 21 186 20.6C185.414 20.1867 184.98 19.66 184.7 19.02C184.42 18.3667 184.28 17.6933 184.28 17C184.267 16.2133 184.414 15.5 184.72 14.86C185.04 14.22 185.494 13.7133 186.08 13.34C186.68 12.9667 187.394 12.78 188.22 12.78C188.94 12.78 189.58 12.94 190.14 13.26C190.7 13.5667 191.147 14.0067 191.48 14.58C191.814 15.14 191.994 15.8067 192.02 16.58C192.034 16.62 192.04 16.7 192.04 16.82C192.04 16.9267 192.04 17.02 192.04 17.1H185.86C185.86 17.9533 186.067 18.62 186.48 19.1C186.907 19.5667 187.494 19.8 188.24 19.8C188.8 19.8 189.274 19.66 189.66 19.38C190.06 19.0867 190.307 18.7 190.4 18.22H192.02C191.94 18.78 191.74 19.2867 191.42 19.74C191.1 20.1933 190.674 20.5533 190.14 20.82C189.607 21.0733 188.98 21.2 188.26 21.2ZM185.92 16.28H190.36C190.347 16.1333 190.307 15.94 190.24 15.7C190.187 15.46 190.08 15.2267 189.92 15C189.76 14.76 189.54 14.56 189.26 14.4C188.98 14.24 188.62 14.16 188.18 14.16C187.78 14.16 187.44 14.2267 187.16 14.36C186.88 14.4933 186.654 14.6733 186.48 14.9C186.307 15.1133 186.174 15.3467 186.08 15.6C186 15.84 185.947 16.0667 185.92 16.28ZM193.881 21V9.74H195.521V21H193.881Z" fill="#153D5D"/>
<path d="M80.5556 39.335L78.0466 34.681H78.6966L80.8546 38.711L82.9736 34.681H83.6236L81.0886 39.335H80.5556ZM80.5296 42V39.166H81.1276V42H80.5296ZM85.898 42.13C85.352 42.13 84.8926 42.0173 84.52 41.792C84.156 41.558 83.883 41.2373 83.701 40.83C83.519 40.4227 83.428 39.959 83.428 39.439C83.428 38.9103 83.519 38.4423 83.701 38.035C83.883 37.619 84.156 37.2983 84.52 37.073C84.8926 36.839 85.352 36.722 85.898 36.722C86.6953 36.722 87.302 36.9733 87.718 37.476C88.1426 37.97 88.355 38.6243 88.355 39.439C88.355 39.9417 88.2683 40.401 88.095 40.817C87.9216 41.2243 87.653 41.545 87.289 41.779C86.925 42.013 86.4613 42.13 85.898 42.13ZM85.898 41.597C86.3833 41.597 86.7603 41.4887 87.029 41.272C87.2976 41.0553 87.484 40.7823 87.588 40.453C87.7006 40.115 87.757 39.7727 87.757 39.426C87.757 39.0707 87.7006 38.7283 87.588 38.399C87.484 38.061 87.2976 37.7837 87.029 37.567C86.7603 37.3503 86.3833 37.242 85.898 37.242C85.4213 37.242 85.0443 37.3503 84.767 37.567C84.4896 37.7837 84.2946 38.061 84.182 38.399C84.078 38.7283 84.026 39.0707 84.026 39.426C84.026 39.7727 84.078 40.115 84.182 40.453C84.2946 40.7823 84.4896 41.0553 84.767 41.272C85.0443 41.4887 85.4213 41.597 85.898 41.597ZM91.4385 42.13C91.1092 42.13 90.8232 42.0823 90.5805 41.987C90.3465 41.8917 90.1515 41.7617 89.9955 41.597C89.8395 41.4237 89.7182 41.2287 89.6315 41.012C89.5448 40.7867 89.4842 40.544 89.4495 40.284C89.4148 40.024 89.3975 39.7553 89.3975 39.478V36.722H89.9825V39.478C89.9825 39.868 90.0215 40.2233 90.0995 40.544C90.1862 40.8647 90.3465 41.1203 90.5805 41.311C90.8145 41.493 91.1482 41.584 91.5815 41.584C91.9975 41.584 92.3268 41.4887 92.5695 41.298C92.8208 41.0987 93.0072 40.8473 93.1285 40.544C93.2498 40.232 93.3192 39.9027 93.3365 39.556V36.722H93.9475V42H93.4535L93.3495 40.739H93.3235C93.2802 40.8777 93.2108 41.025 93.1155 41.181C93.0202 41.337 92.8945 41.4887 92.7385 41.636C92.5912 41.7833 92.4092 41.9047 92.1925 42C91.9758 42.0867 91.7245 42.13 91.4385 42.13ZM95.2927 42V36.722H95.7997L95.8907 38.243L95.8777 39.374V42H95.2927ZM95.8777 39.452L95.8387 38.308C95.856 38.1 95.908 37.9007 95.9947 37.71C96.09 37.5193 96.22 37.3503 96.3847 37.203C96.558 37.0557 96.7617 36.9387 96.9957 36.852C97.2384 36.7653 97.52 36.722 97.8407 36.722H98.1267V37.385H97.8407C97.3987 37.385 97.0434 37.4413 96.7747 37.554C96.5147 37.658 96.3197 37.8053 96.1897 37.996C96.0597 38.178 95.973 38.3947 95.9297 38.646C95.895 38.8973 95.8777 39.166 95.8777 39.452ZM102.017 42V36.722H102.537L102.602 38.126H102.628C102.646 38.048 102.685 37.9353 102.745 37.788C102.815 37.632 102.914 37.476 103.044 37.32C103.183 37.1553 103.356 37.0167 103.564 36.904C103.781 36.7827 104.054 36.722 104.383 36.722C104.721 36.722 104.999 36.7913 105.215 36.93C105.432 37.0687 105.597 37.2463 105.709 37.463C105.831 37.671 105.917 37.892 105.969 38.126H105.995C106.021 38.048 106.069 37.9353 106.138 37.788C106.216 37.632 106.325 37.4717 106.463 37.307C106.611 37.1423 106.797 37.0037 107.022 36.891C107.248 36.7783 107.525 36.722 107.854 36.722C108.192 36.722 108.47 36.7913 108.686 36.93C108.912 37.0687 109.085 37.2463 109.206 37.463C109.336 37.671 109.427 37.8963 109.479 38.139C109.54 38.3817 109.575 38.6157 109.583 38.841C109.601 39.0663 109.609 39.2483 109.609 39.387V42H109.024V39.387C109.024 39.231 109.016 39.036 108.998 38.802C108.99 38.568 108.942 38.334 108.855 38.1C108.777 37.866 108.647 37.671 108.465 37.515C108.283 37.3503 108.028 37.268 107.698 37.268C107.334 37.268 107.035 37.372 106.801 37.58C106.567 37.788 106.39 38.061 106.268 38.399C106.156 38.737 106.099 39.1053 106.099 39.504V42H105.527V39.387C105.527 39.231 105.519 39.036 105.501 38.802C105.484 38.568 105.436 38.334 105.358 38.1C105.28 37.866 105.15 37.671 104.968 37.515C104.786 37.3503 104.531 37.268 104.201 37.268C103.837 37.268 103.534 37.372 103.291 37.58C103.057 37.788 102.884 38.061 102.771 38.399C102.659 38.737 102.602 39.1053 102.602 39.504V42H102.017ZM113.028 42.13C112.465 42.13 111.997 41.9957 111.624 41.727C111.26 41.4583 110.987 41.116 110.805 40.7C110.623 40.2753 110.537 39.8377 110.545 39.387C110.545 38.919 110.641 38.4813 110.831 38.074C111.022 37.6667 111.299 37.3417 111.663 37.099C112.036 36.8477 112.487 36.722 113.015 36.722C113.457 36.722 113.847 36.8217 114.185 37.021C114.532 37.2117 114.809 37.4847 115.017 37.84C115.225 38.1867 115.342 38.6027 115.368 39.088C115.377 39.1313 115.381 39.1833 115.381 39.244C115.381 39.3047 115.381 39.361 115.381 39.413H111.117C111.117 40.0803 111.282 40.6133 111.611 41.012C111.949 41.4107 112.422 41.61 113.028 41.61C113.47 41.61 113.852 41.493 114.172 41.259C114.502 41.025 114.705 40.7087 114.783 40.31H115.368C115.308 40.6653 115.169 40.9817 114.952 41.259C114.736 41.5277 114.463 41.74 114.133 41.896C113.804 42.052 113.436 42.13 113.028 42.13ZM111.156 39.023H114.77C114.762 38.8583 114.723 38.6763 114.653 38.477C114.593 38.269 114.493 38.0697 114.354 37.879C114.216 37.6883 114.034 37.5323 113.808 37.411C113.592 37.2897 113.327 37.229 113.015 37.229C112.729 37.229 112.478 37.281 112.261 37.385C112.045 37.4803 111.858 37.6103 111.702 37.775C111.555 37.9397 111.434 38.1303 111.338 38.347C111.252 38.555 111.191 38.7803 111.156 39.023ZM116.465 42V36.722H116.985L117.05 38.126H117.076C117.093 38.048 117.132 37.9353 117.193 37.788C117.262 37.632 117.362 37.476 117.492 37.32C117.63 37.1553 117.804 37.0167 118.012 36.904C118.228 36.7827 118.501 36.722 118.831 36.722C119.169 36.722 119.446 36.7913 119.663 36.93C119.879 37.0687 120.044 37.2463 120.157 37.463C120.278 37.671 120.365 37.892 120.417 38.126H120.443C120.469 38.048 120.516 37.9353 120.586 37.788C120.664 37.632 120.772 37.4717 120.911 37.307C121.058 37.1423 121.244 37.0037 121.47 36.891C121.695 36.7783 121.972 36.722 122.302 36.722C122.64 36.722 122.917 36.7913 123.134 36.93C123.359 37.0687 123.532 37.2463 123.654 37.463C123.784 37.671 123.875 37.8963 123.927 38.139C123.987 38.3817 124.022 38.6157 124.031 38.841C124.048 39.0663 124.057 39.2483 124.057 39.387V42H123.472V39.387C123.472 39.231 123.463 39.036 123.446 38.802C123.437 38.568 123.389 38.334 123.303 38.1C123.225 37.866 123.095 37.671 122.913 37.515C122.731 37.3503 122.475 37.268 122.146 37.268C121.782 37.268 121.483 37.372 121.249 37.58C121.015 37.788 120.837 38.061 120.716 38.399C120.603 38.737 120.547 39.1053 120.547 39.504V42H119.975V39.387C119.975 39.231 119.966 39.036 119.949 38.802C119.931 38.568 119.884 38.334 119.806 38.1C119.728 37.866 119.598 37.671 119.416 37.515C119.234 37.3503 118.978 37.268 118.649 37.268C118.285 37.268 117.981 37.372 117.739 37.58C117.505 37.788 117.331 38.061 117.219 38.399C117.106 38.737 117.05 39.1053 117.05 39.504V42H116.465ZM127.45 42.13C126.904 42.13 126.444 42.0173 126.072 41.792C125.708 41.558 125.435 41.2373 125.253 40.83C125.071 40.4227 124.98 39.959 124.98 39.439C124.98 38.9103 125.071 38.4423 125.253 38.035C125.435 37.619 125.708 37.2983 126.072 37.073C126.444 36.839 126.904 36.722 127.45 36.722C128.247 36.722 128.854 36.9733 129.27 37.476C129.694 37.97 129.907 38.6243 129.907 39.439C129.907 39.9417 129.82 40.401 129.647 40.817C129.473 41.2243 129.205 41.545 128.841 41.779C128.477 42.013 128.013 42.13 127.45 42.13ZM127.45 41.597C127.935 41.597 128.312 41.4887 128.581 41.272C128.849 41.0553 129.036 40.7823 129.14 40.453C129.252 40.115 129.309 39.7727 129.309 39.426C129.309 39.0707 129.252 38.7283 129.14 38.399C129.036 38.061 128.849 37.7837 128.581 37.567C128.312 37.3503 127.935 37.242 127.45 37.242C126.973 37.242 126.596 37.3503 126.319 37.567C126.041 37.7837 125.846 38.061 125.734 38.399C125.63 38.7283 125.578 39.0707 125.578 39.426C125.578 39.7727 125.63 40.115 125.734 40.453C125.846 40.7823 126.041 41.0553 126.319 41.272C126.596 41.4887 126.973 41.597 127.45 41.597ZM131.144 42V36.722H131.651L131.742 38.243L131.729 39.374V42H131.144ZM131.729 39.452L131.69 38.308C131.708 38.1 131.76 37.9007 131.846 37.71C131.942 37.5193 132.072 37.3503 132.236 37.203C132.41 37.0557 132.613 36.9387 132.847 36.852C133.09 36.7653 133.372 36.722 133.692 36.722H133.978V37.385H133.692C133.25 37.385 132.895 37.4413 132.626 37.554C132.366 37.658 132.171 37.8053 132.041 37.996C131.911 38.178 131.825 38.3947 131.781 38.646C131.747 38.8973 131.729 39.166 131.729 39.452ZM134.852 42V36.722H135.45V42H134.852ZM135.164 35.877C134.99 35.877 134.869 35.8337 134.8 35.747C134.739 35.6517 134.709 35.5433 134.709 35.422C134.709 35.3007 134.739 35.1967 134.8 35.11C134.869 35.0233 134.99 34.98 135.164 34.98C135.346 34.98 135.463 35.0233 135.515 35.11C135.575 35.1967 135.606 35.3007 135.606 35.422C135.606 35.5433 135.575 35.6517 135.515 35.747C135.463 35.8337 135.346 35.877 135.164 35.877ZM139.016 42.13C138.452 42.13 137.984 41.9957 137.612 41.727C137.248 41.4583 136.975 41.116 136.793 40.7C136.611 40.2753 136.524 39.8377 136.533 39.387C136.533 38.919 136.628 38.4813 136.819 38.074C137.009 37.6667 137.287 37.3417 137.651 37.099C138.023 36.8477 138.474 36.722 139.003 36.722C139.445 36.722 139.835 36.8217 140.173 37.021C140.519 37.2117 140.797 37.4847 141.005 37.84C141.213 38.1867 141.33 38.6027 141.356 39.088C141.364 39.1313 141.369 39.1833 141.369 39.244C141.369 39.3047 141.369 39.361 141.369 39.413H137.105C137.105 40.0803 137.269 40.6133 137.599 41.012C137.937 41.4107 138.409 41.61 139.016 41.61C139.458 41.61 139.839 41.493 140.16 41.259C140.489 41.025 140.693 40.7087 140.771 40.31H141.356C141.295 40.6653 141.156 40.9817 140.94 41.259C140.723 41.5277 140.45 41.74 140.121 41.896C139.791 42.052 139.423 42.13 139.016 42.13ZM137.144 39.023H140.758C140.749 38.8583 140.71 38.6763 140.641 38.477C140.58 38.269 140.48 38.0697 140.342 37.879C140.203 37.6883 140.021 37.5323 139.796 37.411C139.579 37.2897 139.315 37.229 139.003 37.229C138.717 37.229 138.465 37.281 138.249 37.385C138.032 37.4803 137.846 37.6103 137.69 37.775C137.542 37.9397 137.421 38.1303 137.326 38.347C137.239 38.555 137.178 38.7803 137.144 39.023ZM144.545 42.13C144.189 42.13 143.886 42.0823 143.635 41.987C143.383 41.883 143.175 41.753 143.011 41.597C142.846 41.441 142.716 41.2807 142.621 41.116C142.525 40.9513 142.456 40.7997 142.413 40.661C142.378 40.5223 142.361 40.4183 142.361 40.349H142.946C142.946 40.3577 142.954 40.4313 142.972 40.57C142.998 40.7 143.058 40.8517 143.154 41.025C143.258 41.1983 143.418 41.35 143.635 41.48C143.851 41.6013 144.155 41.662 144.545 41.662C144.831 41.662 145.091 41.6317 145.325 41.571C145.559 41.5017 145.745 41.3977 145.884 41.259C146.022 41.1117 146.092 40.921 146.092 40.687C146.092 40.4097 146.001 40.1973 145.819 40.05C145.645 39.894 145.42 39.7813 145.143 39.712C144.865 39.634 144.575 39.5647 144.272 39.504C143.968 39.4347 143.678 39.348 143.401 39.244C143.132 39.14 142.911 38.9883 142.738 38.789C142.573 38.5897 142.491 38.3167 142.491 37.97C142.499 37.554 142.694 37.2203 143.076 36.969C143.457 36.709 143.947 36.579 144.545 36.579C144.77 36.579 145.008 36.605 145.26 36.657C145.511 36.709 145.741 36.8 145.949 36.93C146.165 37.06 146.339 37.2377 146.469 37.463C146.607 37.6883 146.664 37.983 146.638 38.347H146.066C146.074 38.0783 146.027 37.8617 145.923 37.697C145.827 37.5323 145.693 37.4067 145.52 37.32C145.355 37.2247 145.182 37.164 145 37.138C144.818 37.112 144.653 37.099 144.506 37.099C144.098 37.099 143.752 37.1727 143.466 37.32C143.188 37.4673 143.05 37.6927 143.05 37.996C143.05 38.2473 143.136 38.4423 143.31 38.581C143.483 38.7197 143.708 38.828 143.986 38.906C144.263 38.9753 144.553 39.0403 144.857 39.101C145.16 39.1617 145.45 39.2483 145.728 39.361C146.005 39.4737 146.23 39.634 146.404 39.842C146.577 40.05 146.664 40.3403 146.664 40.713C146.664 41.051 146.568 41.324 146.378 41.532C146.196 41.74 145.944 41.8917 145.624 41.987C145.303 42.0823 144.943 42.13 144.545 42.13ZM152.898 42.13C152.543 42.13 152.24 42.0823 151.988 41.987C151.737 41.883 151.529 41.753 151.364 41.597C151.2 41.441 151.07 41.2807 150.974 41.116C150.879 40.9513 150.81 40.7997 150.766 40.661C150.732 40.5223 150.714 40.4183 150.714 40.349H151.299C151.299 40.3577 151.308 40.4313 151.325 40.57C151.351 40.7 151.412 40.8517 151.507 41.025C151.611 41.1983 151.772 41.35 151.988 41.48C152.205 41.6013 152.508 41.662 152.898 41.662C153.184 41.662 153.444 41.6317 153.678 41.571C153.912 41.5017 154.099 41.3977 154.237 41.259C154.376 41.1117 154.445 40.921 154.445 40.687C154.445 40.4097 154.354 40.1973 154.172 40.05C153.999 39.894 153.774 39.7813 153.496 39.712C153.219 39.634 152.929 39.5647 152.625 39.504C152.322 39.4347 152.032 39.348 151.754 39.244C151.486 39.14 151.265 38.9883 151.091 38.789C150.927 38.5897 150.844 38.3167 150.844 37.97C150.853 37.554 151.048 37.2203 151.429 36.969C151.811 36.709 152.3 36.579 152.898 36.579C153.124 36.579 153.362 36.605 153.613 36.657C153.865 36.709 154.094 36.8 154.302 36.93C154.519 37.06 154.692 37.2377 154.822 37.463C154.961 37.6883 155.017 37.983 154.991 38.347H154.419C154.428 38.0783 154.38 37.8617 154.276 37.697C154.181 37.5323 154.047 37.4067 153.873 37.32C153.709 37.2247 153.535 37.164 153.353 37.138C153.171 37.112 153.007 37.099 152.859 37.099C152.452 37.099 152.105 37.1727 151.819 37.32C151.542 37.4673 151.403 37.6927 151.403 37.996C151.403 38.2473 151.49 38.4423 151.663 38.581C151.837 38.7197 152.062 38.828 152.339 38.906C152.617 38.9753 152.907 39.0403 153.21 39.101C153.514 39.1617 153.804 39.2483 154.081 39.361C154.359 39.4737 154.584 39.634 154.757 39.842C154.931 40.05 155.017 40.3403 155.017 40.713C155.017 41.051 154.922 41.324 154.731 41.532C154.549 41.74 154.298 41.8917 153.977 41.987C153.657 42.0823 153.297 42.13 152.898 42.13ZM157.078 42C156.809 42 156.631 41.922 156.545 41.766C156.467 41.61 156.428 41.4237 156.428 41.207V37.099H157V41.493H158.235V42H157.078ZM155.557 37.203V36.722C155.791 36.722 155.968 36.7133 156.09 36.696C156.211 36.6787 156.298 36.631 156.35 36.553C156.402 36.4663 156.432 36.332 156.441 36.15C156.458 35.9593 156.467 35.695 156.467 35.357H157V36.722H158.235V37.203H155.557ZM161.234 42.117C160.749 42.117 160.346 41.9957 160.025 41.753C159.704 41.5103 159.466 41.1853 159.31 40.778C159.154 40.362 159.076 39.9027 159.076 39.4C159.076 38.8713 159.154 38.4033 159.31 37.996C159.475 37.5887 159.717 37.268 160.038 37.034C160.367 36.7913 160.766 36.67 161.234 36.67C161.494 36.67 161.724 36.7047 161.923 36.774C162.122 36.8433 162.3 36.9343 162.456 37.047C162.612 37.1597 162.742 37.2897 162.846 37.437C162.959 37.5757 163.045 37.7273 163.106 37.892H163.119V36.722H163.73V42H163.236L163.132 40.908H163.106C163.037 41.064 162.946 41.2157 162.833 41.363C162.729 41.5017 162.599 41.6317 162.443 41.753C162.287 41.8657 162.109 41.9523 161.91 42.013C161.711 42.0823 161.485 42.117 161.234 42.117ZM161.455 41.571C161.828 41.571 162.135 41.4843 162.378 41.311C162.629 41.1377 162.816 40.8907 162.937 40.57C163.058 40.2407 163.119 39.855 163.119 39.413C163.119 38.9277 163.054 38.529 162.924 38.217C162.794 37.8963 162.603 37.6537 162.352 37.489C162.109 37.3243 161.81 37.242 161.455 37.242C161.048 37.242 160.71 37.3373 160.441 37.528C160.181 37.7187 159.986 37.9743 159.856 38.295C159.735 38.6157 159.674 38.984 159.674 39.4C159.674 39.8247 159.739 40.2017 159.869 40.531C159.999 40.8603 160.194 41.116 160.454 41.298C160.723 41.48 161.056 41.571 161.455 41.571ZM164.901 42V36.722H165.408L165.499 38.243L165.486 39.374V42H164.901ZM165.486 39.452L165.447 38.308C165.464 38.1 165.516 37.9007 165.603 37.71C165.698 37.5193 165.828 37.3503 165.993 37.203C166.166 37.0557 166.37 36.9387 166.604 36.852C166.847 36.7653 167.128 36.722 167.449 36.722H167.735V37.385H167.449C167.007 37.385 166.652 37.4413 166.383 37.554C166.123 37.658 165.928 37.8053 165.798 37.996C165.668 38.178 165.581 38.3947 165.538 38.646C165.503 38.8973 165.486 39.166 165.486 39.452ZM169.976 42C169.707 42 169.53 41.922 169.443 41.766C169.365 41.61 169.326 41.4237 169.326 41.207V37.099H169.898V41.493H171.133V42H169.976ZM168.455 37.203V36.722C168.689 36.722 168.867 36.7133 168.988 36.696C169.109 36.6787 169.196 36.631 169.248 36.553C169.3 36.4663 169.33 36.332 169.339 36.15C169.356 35.9593 169.365 35.695 169.365 35.357H169.898V36.722H171.133V37.203H168.455ZM175.486 42V34.681H176.084V38.126H176.11C176.127 38.0653 176.17 37.9613 176.24 37.814C176.309 37.6667 176.417 37.5107 176.565 37.346C176.712 37.1727 176.903 37.0253 177.137 36.904C177.379 36.7827 177.678 36.722 178.034 36.722C178.398 36.722 178.701 36.774 178.944 36.878C179.186 36.982 179.381 37.125 179.529 37.307C179.685 37.489 179.802 37.697 179.88 37.931C179.958 38.1563 180.01 38.3947 180.036 38.646C180.062 38.8887 180.075 39.1357 180.075 39.387V42H179.503V39.387C179.503 38.9537 179.455 38.581 179.36 38.269C179.264 37.9483 179.104 37.7013 178.879 37.528C178.653 37.3547 178.337 37.268 177.93 37.268C177.514 37.268 177.167 37.372 176.89 37.58C176.621 37.788 176.417 38.061 176.279 38.399C176.149 38.737 176.084 39.1053 176.084 39.504V42H175.486ZM183.526 42.13C182.962 42.13 182.494 41.9957 182.122 41.727C181.758 41.4583 181.485 41.116 181.303 40.7C181.121 40.2753 181.034 39.8377 181.043 39.387C181.043 38.919 181.138 38.4813 181.329 38.074C181.519 37.6667 181.797 37.3417 182.161 37.099C182.533 36.8477 182.984 36.722 183.513 36.722C183.955 36.722 184.345 36.8217 184.683 37.021C185.029 37.2117 185.307 37.4847 185.515 37.84C185.723 38.1867 185.84 38.6027 185.866 39.088C185.874 39.1313 185.879 39.1833 185.879 39.244C185.879 39.3047 185.879 39.361 185.879 39.413H181.615C181.615 40.0803 181.779 40.6133 182.109 41.012C182.447 41.4107 182.919 41.61 183.526 41.61C183.968 41.61 184.349 41.493 184.67 41.259C184.999 41.025 185.203 40.7087 185.281 40.31H185.866C185.805 40.6653 185.666 40.9817 185.45 41.259C185.233 41.5277 184.96 41.74 184.631 41.896C184.301 42.052 183.933 42.13 183.526 42.13ZM181.654 39.023H185.268C185.259 38.8583 185.22 38.6763 185.151 38.477C185.09 38.269 184.99 38.0697 184.852 37.879C184.713 37.6883 184.531 37.5323 184.306 37.411C184.089 37.2897 183.825 37.229 183.513 37.229C183.227 37.229 182.975 37.281 182.759 37.385C182.542 37.4803 182.356 37.6103 182.2 37.775C182.052 37.9397 181.931 38.1303 181.836 38.347C181.749 38.555 181.688 38.7803 181.654 39.023ZM187.131 42V36.722H187.638L187.729 38.243L187.716 39.374V42H187.131ZM187.716 39.452L187.677 38.308C187.694 38.1 187.746 37.9007 187.833 37.71C187.928 37.5193 188.058 37.3503 188.223 37.203C188.396 37.0557 188.6 36.9387 188.834 36.852C189.076 36.7653 189.358 36.722 189.679 36.722H189.965V37.385H189.679C189.237 37.385 188.881 37.4413 188.613 37.554C188.353 37.658 188.158 37.8053 188.028 37.996C187.898 38.178 187.811 38.3947 187.768 38.646C187.733 38.8973 187.716 39.166 187.716 39.452ZM192.907 42.13C192.344 42.13 191.876 41.9957 191.503 41.727C191.139 41.4583 190.866 41.116 190.684 40.7C190.502 40.2753 190.416 39.8377 190.424 39.387C190.424 38.919 190.52 38.4813 190.71 38.074C190.901 37.6667 191.178 37.3417 191.542 37.099C191.915 36.8477 192.366 36.722 192.894 36.722C193.336 36.722 193.726 36.8217 194.064 37.021C194.411 37.2117 194.688 37.4847 194.896 37.84C195.104 38.1867 195.221 38.6027 195.247 39.088C195.256 39.1313 195.26 39.1833 195.26 39.244C195.26 39.3047 195.26 39.361 195.26 39.413H190.996C190.996 40.0803 191.161 40.6133 191.49 41.012C191.828 41.4107 192.301 41.61 192.907 41.61C193.349 41.61 193.731 41.493 194.051 41.259C194.381 41.025 194.584 40.7087 194.662 40.31H195.247C195.187 40.6653 195.048 40.9817 194.831 41.259C194.615 41.5277 194.342 41.74 194.012 41.896C193.683 42.052 193.315 42.13 192.907 42.13ZM191.035 39.023H194.649C194.641 38.8583 194.602 38.6763 194.532 38.477C194.472 38.269 194.372 38.0697 194.233 37.879C194.095 37.6883 193.913 37.5323 193.687 37.411C193.471 37.2897 193.206 37.229 192.894 37.229C192.608 37.229 192.357 37.281 192.14 37.385C191.924 37.4803 191.737 37.6103 191.581 37.775C191.434 37.9397 191.313 38.1303 191.217 38.347C191.131 38.555 191.07 38.7803 191.035 39.023Z" fill="#153D5D"/>
</svg>
