<svg width="24" height="24" viewBox="0 0 24 24" fill="none" xmlns="http://www.w3.org/2000/svg">
<mask id="mask0_27_1051" style="mask-type:alpha" maskUnits="userSpaceOnUse" x="0" y="0" width="24" height="24">
<rect width="24" height="24" fill="#D9D9D9"/>
</mask>
<g mask="url(#mask0_27_1051)">
<path d="M18.9307 20C17.2449 20 15.5167 19.5779 13.7462 18.7337C11.9757 17.8894 10.3277 16.7044 8.802 15.1788C7.28917 13.6532 6.11058 12.0084 5.26625 10.2443C4.42208 8.48008 4 6.75508 4 5.06925C4 4.76925 4.1 4.516 4.3 4.3095C4.5 4.10317 4.75 4 5.05 4H7.523C7.79483 4 8.032 4.08558 8.2345 4.25675C8.43717 4.42792 8.57442 4.6475 8.64625 4.9155L9.14225 7.3C9.18842 7.5795 9.18008 7.82375 9.11725 8.03275C9.05442 8.24175 8.9435 8.41292 8.7845 8.54625L6.5905 10.5923C7.00067 11.3371 7.45417 12.0291 7.951 12.6683C8.44783 13.3074 8.97767 13.9128 9.5405 14.4845C10.1212 15.0653 10.7462 15.6054 11.4155 16.1048C12.0847 16.6041 12.8193 17.0756 13.6193 17.5193L15.7578 15.3422C15.9206 15.1666 16.1036 15.0509 16.3068 14.9952C16.5099 14.9394 16.7346 14.9282 16.9808 14.9615L19.0845 15.3923C19.3563 15.4589 19.5769 15.5958 19.7462 15.803C19.9154 16.01 20 16.2475 20 16.5155V18.95C20 19.25 19.8968 19.5 19.6905 19.7C19.484 19.9 19.2308 20 18.9307 20Z" fill="#153D5D"/>
</g>
</svg>
