<svg width="85" height="85" viewBox="0 0 85 85" fill="none" xmlns="http://www.w3.org/2000/svg">
<mask id="mask0_42_1327" style="mask-type:alpha" maskUnits="userSpaceOnUse" x="0" y="0" width="85" height="85">
<rect width="85" height="85" fill="#D9D9D9"/>
</mask>
<g mask="url(#mask0_42_1327)">
<path d="M42.5 69.7708V67.2916H64.4583C65.2257 67.2916 65.8898 67.0555 66.4505 66.5833C67.0113 66.1111 67.2917 65.4913 67.2917 64.7239V40.552C67.2917 34 64.842 28.5546 59.9427 24.2161C55.0434 19.8776 49.2292 17.7083 42.5 17.7083C35.7708 17.7083 29.9566 19.8776 25.0573 24.2161C20.158 28.5546 17.7083 34 17.7083 40.552V60.2083H16.4688C15.1701 60.2083 14.0486 59.7803 13.1042 58.9244C12.1597 58.0685 11.6875 56.9913 11.6875 55.6927V49.1406C11.6875 48.1371 12.0417 47.2665 12.75 46.5286C13.4583 45.7908 14.2847 45.1857 15.2292 44.7135V40.4635C15.1701 36.8628 15.8637 33.5277 17.3099 30.4583C18.7561 27.3888 20.7335 24.7178 23.2422 22.4453C25.7509 20.1727 28.658 18.4019 31.9635 17.1328C35.2691 15.8637 38.7812 15.2291 42.5 15.2291C46.2188 15.2291 49.7309 15.8637 53.0365 17.1328C56.342 18.4019 59.2344 20.1727 61.7135 22.4453C64.1927 24.7178 66.1554 27.3888 67.6016 30.4583C69.0477 33.5277 69.7708 36.8628 69.7708 40.4635V44.625C70.6562 45.0382 71.4679 45.5694 72.2057 46.2187C72.9436 46.868 73.3125 47.6944 73.3125 48.6979V56.2239C73.3125 57.2274 72.9436 58.0538 72.2057 58.7031C71.4679 59.3524 70.6562 59.8836 69.7708 60.2968V64.7239C69.7708 66.1406 69.2543 67.3359 68.2214 68.3099C67.1884 69.2838 65.934 69.7708 64.4583 69.7708H42.5ZM33.6458 47.4583C32.9965 47.4583 32.421 47.2369 31.9193 46.7942C31.4175 46.3515 31.1667 45.8055 31.1667 45.1562C31.1667 44.5069 31.4175 43.9461 31.9193 43.4739C32.421 43.0017 32.9965 42.7656 33.6458 42.7656C34.2951 42.7656 34.8707 43.0017 35.3724 43.4739C35.8741 43.9461 36.125 44.5069 36.125 45.1562C36.125 45.8055 35.8741 46.3515 35.3724 46.7942C34.8707 47.2369 34.2951 47.4583 33.6458 47.4583ZM51.3542 47.4583C50.7049 47.4583 50.1293 47.2369 49.6276 46.7942C49.1259 46.3515 48.875 45.8055 48.875 45.1562C48.875 44.5069 49.1259 43.9461 49.6276 43.4739C50.1293 43.0017 50.7049 42.7656 51.3542 42.7656C52.0035 42.7656 52.579 43.0017 53.0807 43.4739C53.5825 43.9461 53.8333 44.5069 53.8333 45.1562C53.8333 45.8055 53.5825 46.3515 53.0807 46.7942C52.579 47.2369 52.0035 47.4583 51.3542 47.4583ZM24.526 41.7916C24.2309 36.7743 25.8837 32.5095 29.4844 28.9974C33.0851 25.4852 37.4826 23.7291 42.6771 23.7291C47.0451 23.7291 50.9262 25.013 54.3203 27.5807C57.7144 30.1484 59.7951 33.5572 60.5625 37.8072C56.0764 37.7482 51.9002 36.6267 48.0339 34.4427C44.1675 32.2586 41.2014 29.1892 39.1354 25.2343C38.309 29.1302 36.5972 32.5243 34 35.4166C31.4028 38.309 28.2448 40.434 24.526 41.7916Z" fill="#153D5D"/>
</g>
</svg>
